<?xml version="1.0" encoding="UTF-8"?>
<svg width="277.019912px" height="412.657651px" viewBox="0 0 277.019912 412.657651" version="1.1" xmlns="http://www.w3.org/2000/svg" xmlns:xlink="http://www.w3.org/1999/xlink">
    <title>shape-top-right</title>
    <g id="Page-1" stroke="none" stroke-width="1" fill="none" fill-rule="evenodd">
        <g id="Landing-Page" transform="translate(-1642.9801, -80)">
            <g id="Group" transform="translate(0.4741, 80)">
                <g id="Group-31" transform="translate(-332.4741, -188)">
                    <g id="shape-top-right" transform="translate(1974.9801, 0)">
                        <path d="M412.204611,135.315361 C426.615137,136.188175 439.698257,133.542457 452.435889,128.914724 C455.727125,127.714604 459.000178,126.332648 462.036844,124.596112 C472.43788,118.650066 475.592739,110.20377 471.819636,98.9117373 C470.846812,95.9932649 469.310296,93.2111698 468.737511,90.219963 C467.973799,86.1831976 467.046434,81.8736777 467.673769,77.9187386 C469.401214,67.0722045 480.993277,63.2900098 489.294103,70.4816347 C493.103573,73.7819632 495.2947,78.0551158 496.585738,82.7919509 C497.567654,86.3923093 498.322274,90.0654022 498.922334,93.7566787 C500.55886,103.703123 505.104767,111.931215 512.641881,118.659157 C515.905843,121.57763 518.987968,124.768856 521.697328,128.19647 C525.697726,133.278794 526.925121,139.297575 526.034123,145.652753 C524.497607,156.535655 513.98747,161.445234 504.813829,155.426453 C501.531685,153.271693 498.776865,150.335038 495.749291,147.78933 C488.466748,141.643263 482.884374,141.134122 474.665374,145.961875 C472.39242,147.298372 470.210385,148.798521 468.073809,150.344129 C459.818442,156.344727 450.635709,159.535953 440.407419,159.754157 C436.45248,159.835983 432.461173,159.87235 428.551693,160.408767 C425.105896,160.881542 421.560088,161.57252 418.396137,162.954475 C409.213405,166.963965 405.694873,175.119323 408.695171,184.62936 C411.068135,192.121015 415.041257,198.667121 420.978212,203.858547 C428.678979,210.586489 437.079815,209.813685 443.298616,201.731062 C445.4261,198.958059 447.053535,195.785016 448.708245,192.684707 C453.84512,183.038293 461.918651,177.974152 472.747001,178.174172 C478.847608,178.283274 485.193695,178.819691 490.939721,180.674421 C501.586235,184.120219 512.123648,188.129709 522.242837,192.884727 C540.335547,201.385573 548.327251,217.378074 544.745077,236.043569 C542.981265,245.17175 537.717104,251.445102 530.789142,252.645221 C523.952098,253.836249 516.915034,249.708565 512.33276,241.371372 C510.323469,237.734646 508.859687,233.788799 507.259527,229.924778 C504.895656,224.187843 502.077193,218.741846 497.385817,214.505061 C492.448962,210.050072 486.821129,207.404354 479.984085,208.095332 C469.101184,209.204533 462.964209,219.178254 467.255546,229.197433 C468.610226,232.379568 470.73771,235.29804 472.89247,238.052859 C478.574854,245.326311 484.539084,252.381558 490.266927,259.627734 C496.076596,266.983012 502.959099,273.03816 511.387211,277.202211 C520.869973,281.875403 528.561648,288.485152 534.53497,297.276936 C539.99915,305.323192 546.772551,312.23297 554.318757,318.39722 C559.637468,322.743107 564.237926,327.734513 567.310959,333.989681 C570.77494,341.026745 571.638663,348.291105 569.102047,355.755484 C567.629173,360.119555 565.556239,364.283606 564.065182,368.638585 C562.65595,372.77536 560.910322,376.993962 560.6012,381.267114 C559.737478,393.277401 570.12033,400.54176 581.239618,396.023129 C583.667133,395.041213 586.040096,393.786542 588.21304,392.313668 C594.468208,388.049608 601.450721,385.976674 608.842366,386.767662 C624.180256,388.41328 633.726661,381.348941 641.818375,368.793146 C655.828861,347.054618 663.265965,323.715931 663.929667,297.986098 C664.047861,293.18562 664.520635,288.27604 665.738938,283.648307 C667.657311,276.393039 672.348687,271.18343 679.876709,269.383251 C692.432504,266.382952 703.642711,277.356772 700.524219,289.912567 C699.442293,294.24027 696.669289,298.204301 694.350877,302.141057 C692.45978,305.341375 689.768603,308.087103 688.004791,311.351064 C683.749822,319.160933 686.168244,326.661679 694.050847,330.816638 C695.987403,331.834921 698.12398,332.453165 700.169638,333.253244 C702.224388,334.053324 704.379148,334.644292 706.297521,335.671667 C714.580163,340.108472 715.152947,349.036634 707.261253,354.055315 C704.179128,356.010055 700.496943,357.464745 696.905677,358.082989 C682.467876,360.565054 672.039565,368.520391 664.220605,380.548861 C658.829159,388.840595 652.964939,396.841392 647.746238,405.242228 C638.708975,419.780039 640.118206,434.57242 647.737146,449.182965 C650.455599,454.401667 654.455997,458.420248 660.247482,460.28407 C669.566592,463.284369 678.003795,457.011017 677.349185,447.246409 C677.103706,443.573316 676.112698,439.845672 674.830752,436.372599 C669.45749,421.780238 672.639625,409.333544 684.558993,399.659854 C692.214301,393.459237 700.242372,387.431364 708.906871,382.839998 C723.671977,375.021038 734.973102,364.365432 742.046533,349.200286 C743.437581,346.227263 745.23776,343.390617 747.219776,340.781266 C749.074506,338.362844 751.192898,336.026248 753.611321,334.198793 C759.711928,329.552876 767.185399,329.234663 772.713222,332.98049 C778.241045,336.726317 781.104967,343.95431 778.759279,351.118659 C777.222762,355.810035 774.85889,360.637788 771.613113,364.292698 C756.4116,381.403492 741.010067,398.350633 720.171629,409.078974 C715.725732,411.370111 711.470763,414.32495 707.743119,417.670738 C700.487851,424.162293 698.051245,432.51767 701.760705,441.609484 C704.651902,448.682916 708.761402,455.265389 712.343577,462.056974 C715.61663,468.266683 719.162437,474.349107 722.062726,480.722468 C723.281029,483.404553 723.662885,486.732157 723.517416,489.723364 C722.990091,500.915387 711.925353,507.116004 702.106194,501.724559 C699.07862,500.051665 696.223791,497.760528 693.878103,495.205728 C686.813763,487.514053 678.231091,483.950062 667.884606,485.086539 C649.128194,487.132197 635.854145,478.049475 624.943968,464.157183 C619.134299,456.765538 616.506765,448.35561 617.525048,438.872848 C617.915996,435.163388 618.243301,431.399377 618.043282,427.689917 C617.63415,420.098252 613.215528,414.561337 606.851258,413.07028 C600.868845,411.661049 594.640952,414.652256 590.740564,420.861965 C587.967561,425.271494 586.440136,430.171982 586.831084,435.299765 C587.422052,442.955073 588.122122,450.655839 589.649546,458.165678 C591.176971,465.657332 595.595593,471.903409 601.214334,477.0221 C609.496976,484.577397 617.915996,491.996318 626.544128,499.151575 C632.726561,504.279358 640.081839,507.288749 647.891707,509.116204 C651.96484,510.070844 656.065248,510.861832 660.129289,511.85284 C667.111802,513.553009 673.612449,516.471481 678.267458,522.035671 C688.495749,534.255069 700.47876,535.627933 714.334684,529.081827 C724.517516,524.272258 735.436785,523.135781 746.565165,523.726749 C752.547579,524.044962 758.357248,525.072337 763.385021,528.754522 C767.958203,532.100309 770.903951,536.318911 769.940219,542.201315 C768.912844,548.420116 765.103374,552.756911 759.030042,554.111591 C754.829624,555.048048 750.320084,554.866212 745.965105,554.75711 C739.819039,554.593457 733.691156,553.729735 727.54509,553.693368 C717.853216,553.647909 709.079616,556.966421 702.815356,564.321698 C692.832544,576.031955 680.53132,582.314398 665.329806,584.014568 C656.72895,584.9783 648.937266,588.742311 641.59108,593.415503 C637.717967,595.870293 633.644834,598.26144 629.335315,599.716131 C619.08884,603.180112 610.187954,596.752199 609.560619,585.905665 C608.842366,573.595349 618.952463,562.694264 632.008308,562.221489 C636.345103,562.057837 640.745541,562.921559 645.082337,563.567078 C649.719162,564.267148 654.283252,564.603545 658.729149,562.766998 C663.702372,560.712248 667.539117,557.41192 667.911882,551.74772 C668.30283,545.928959 664.59337,542.410427 659.729249,540.128381 C657.574489,539.11919 655.17425,538.500947 652.828562,538.046356 C650.019192,537.519031 647.15527,537.255368 644.309532,537.046256 C632.862938,536.191626 622.907402,531.836647 614.942973,523.644922 C604.369193,512.771113 592.349815,504.206624 578.402972,498.160568 C574.448033,496.451307 570.865858,493.605569 567.56553,490.768923 C562.119533,486.086639 559.391989,479.967848 559.701111,472.658029 C559.728386,471.994327 559.664744,471.330624 559.74657,470.676014 C562.574124,448.191958 555.746172,427.562632 547.145316,407.396988 C545.117841,402.651061 542.026624,398.105154 538.526276,394.295684 C533.425768,388.749677 526.443255,387.795037 520.415382,390.704417 C514.414785,393.586522 510.405295,400.54176 511.359936,407.651559 C511.841802,411.279193 512.923728,415.079571 514.74209,418.225338 C520.633586,428.471813 524.243036,439.38199 526.461439,450.964961 C527.779752,457.838372 530.48002,464.429937 532.43476,471.194247 C534.544061,478.485882 533.180289,485.122906 528.243434,490.959851 C523.233845,496.878622 515.34215,499.478881 508.696034,497.260478 C500.995267,494.678403 496.785758,489.059662 496.067504,481.149784 C495.69474,477.031192 496.076596,472.785315 496.622105,468.666723 C498.004061,458.192953 495.831117,448.601089 490.476039,439.554734 C487.903055,435.208847 485.593734,430.699307 483.375332,426.162492 C480.247748,419.780039 479.75679,413.006637 481.347857,406.187777 C484.793655,391.404487 491.912545,378.794141 503.759179,369.020441 C508.786952,364.874574 514.38751,362.065203 520.815422,360.855992 C524.488515,360.155922 528.197975,359.519495 531.752874,358.39211 C537.107953,356.691941 541.044708,353.300694 541.872063,347.391015 C542.735786,341.263133 540.053701,336.571757 535.025927,333.435081 C532.289291,331.72582 529.052606,330.743904 525.943205,329.707437 C524.088475,329.089194 522.070092,328.880082 520.106261,328.689154 C504.650177,327.207188 493.967295,318.933637 487.412097,305.241365 C481.356949,292.58556 473.465255,281.375353 463.309698,271.68348 C457.990987,266.601156 454.417904,260.282345 451.59035,253.508943 C449.899273,249.453994 448.253654,245.308127 445.917058,241.635034 C442.944035,236.943658 438.598148,233.84335 432.624826,234.952551 C426.960626,235.998109 424.269449,240.207619 422.751116,245.353586 C422.441994,246.408237 422.114689,247.471979 421.987403,248.562997 C420.532713,260.673293 414.113892,269.746923 404.812967,277.202211 C401.394445,279.938847 398.194126,282.993696 395.202919,286.203107 C389.065945,292.812855 387.093021,300.731826 389.056853,309.469059 C391.74803,321.433886 396.61215,332.316788 404.73114,341.763182 C411.022676,349.082093 416.932355,356.764676 422.551096,364.610911 C427.515226,371.557057 433.606742,376.366627 442.043945,378.212265 C445.244264,378.912335 448.462766,379.903342 451.408514,381.303482 C459.00927,384.912932 462.255048,392.504597 458.645598,400.068986 C452.817745,412.261108 442.980402,420.216446 429.642711,422.771246 C419.723542,424.671435 412.559192,418.352624 411.859123,408.142517 C411.686378,405.733186 411.904582,403.305672 411.940949,400.887249 C412.150061,387.0586 406.003994,379.476027 392.54811,376.903044 C389.747831,376.375718 386.911185,375.921128 384.156365,375.184691 C374.928174,372.729901 369.94586,366.965691 369.04577,357.464745 C368.736649,354.209876 368.736649,350.827721 369.218515,347.600127 C370.718664,337.535489 369.063954,327.889074 365.990921,318.360853 C364.236201,312.914856 362.499664,307.46886 360.854046,301.986496 C357.099127,289.430701 360.281261,279.011482 370.655021,270.892492 C374.473583,267.910377 378.36488,265.046455 382.156166,262.037065 C387.902193,257.482066 392.639028,252.036069 396.384855,245.717259 C402.376361,235.579886 402.112698,225.678901 395.302929,216.023394 C393.520934,213.504962 391.775305,210.968345 389.875116,208.549923 C384.674599,201.903807 382.101615,194.339418 381.701575,185.974949 C381.465188,181.138104 381.228801,176.301258 380.892404,171.473505 C380.283252,162.82719 375.937365,156.508379 368.327517,152.635266 C364.236201,150.553241 359.890313,148.825796 355.471692,147.562034 C339.833772,143.088862 328.323535,133.760661 320.322739,119.595614 C317.549735,114.695126 313.958469,109.994659 309.821693,106.203372 C304.0393,100.893753 296.911318,98.6662583 289.046898,101.693832 C276.409277,106.576136 274.054497,121.37761 284.74647,129.651161 C288.010432,132.169593 292.056289,133.642467 295.656647,135.742676 C298.866058,137.61559 302.375498,139.243024 305.030307,141.743273 C312.321942,148.607593 310.367202,158.663139 301.202654,162.681721 C296.211248,164.872848 290.81071,165.509275 285.673835,164.08186 C276.181981,161.436142 266.826505,158.235824 257.516487,154.953679 C255.116248,154.10814 252.961488,152.289778 250.970381,150.589608 C242.860483,143.707105 241.269416,135.91542 246.078985,126.450842 C248.070092,122.541362 250.570341,118.886453 252.51599,114.940605 C257.089172,105.648771 255.016238,97.3934043 247.088177,92.4747329 C239.251033,87.6015206 229.304588,89.292598 223.694939,97.2933944 C220.867385,101.33016 218.930828,106.221556 217.576148,111.012942 C215.357746,118.831902 213.912147,126.869065 212.193794,134.824403 C211.830122,136.533664 211.611918,138.297476 211.466449,140.043104 C210.393615,153.25351 214.684951,160.77244 226.604319,166.482099 C228.977283,167.618576 231.522991,168.418656 233.859587,169.627867 C236.778059,171.137108 239.860184,172.546339 242.34225,174.619273 C249.870272,180.892625 249.215661,190.348111 240.960294,195.584996 C238.78735,196.966952 236.196183,198.057969 233.668659,198.439826 C229.568251,199.048977 225.358741,199.248997 221.203782,199.11262 C209.420791,198.730764 201.265434,193.139298 197.265036,181.81999 C195.946723,178.092346 194.701144,174.301059 192.910057,170.791619 C187.991385,161.127021 179.017765,159.763249 171.462467,167.500382 C168.8713,170.164284 166.652898,173.219133 164.36176,176.164881 C158.543,183.656536 150.896784,187.047783 141.695868,184.820288 C126.130682,181.065369 110.656415,176.883135 95.2730655,172.428146 C87.6904926,170.227927 81.8353644,165.100144 76.9439684,158.926802 C73.8072926,154.962771 70.8706366,150.789628 67.3430128,147.198362 C55.0236047,134.66075 38.3946768,138.324751 32.1486006,154.762751 C28.9755575,163.090853 28.2209369,171.591699 31.6030917,179.901617 C37.3673019,194.021204 39.5493372,208.613566 38.9947366,223.778711 C38.6674313,232.970535 41.0676702,241.616851 45.3862818,249.763116 C47.5410418,253.836249 49.532149,258.009391 51.3323282,262.255268 C52.2687851,264.455487 52.9143039,266.864818 53.1779665,269.237782 C54.7053912,282.957329 42.5223604,291.740021 29.8210962,286.194015 C24.6933131,283.948337 21.3929846,279.938847 19.074572,275.047451 C15.065082,266.601156 12.7557612,257.645719 12.328446,248.335701 C11.8556716,238.234696 11.6829272,228.115507 11.7283862,217.996318 C11.7738453,208.331719 10.0645843,199.139895 5.20955556,190.739059 C-1.10016339,179.837974 -1.54566228,168.764145 3.15480558,157.172082 C5.96417612,150.253211 8.0189261,143.025219 10.7646539,136.079073 C16.4924968,121.623089 27.3117555,113.649568 42.740564,112.231245 C48.1865606,111.731195 53.7234753,111.849389 59.2058392,112.0585 C67.9430725,112.394897 75.4529109,115.831603 81.5535181,122.059496 C85.5448245,126.14172 89.336111,130.433057 93.0455711,134.778944 C112.93846,158.01762 145.996296,160.317849 168.680372,139.688523 C172.353465,136.360919 175.144652,131.960481 177.917655,127.769155 C183.636406,119.177391 189.082403,110.40379 194.592042,101.675649 C196.001273,99.4481543 197.492331,97.2297517 198.510614,94.8204209 C200.629007,89.8199232 200.638099,84.8012418 196.619517,80.7008337 C192.619119,76.6186092 187.654988,76.4458647 182.536297,78.3915129 C181.108882,78.9370218 179.74511,79.6916424 178.435889,80.4826302 C177.117576,81.2645262 175.899273,82.2282585 174.63551,83.1010726 C162.461571,91.4655415 153.060636,90.5472683 143.414221,79.1006744 C138.204611,72.9091491 133.613245,66.0902885 129.549204,59.0895917 C123.748627,49.1067799 117.257072,39.8967723 108.365278,32.3596584 C104.728552,29.2775334 101.546417,25.4589715 98.8734239,21.4858488 C95.44581,16.3944329 94.8821175,10.7938755 98.8279648,5.47516427 C102.246487,0.856522728 108.574389,-1.11640092 114.8932,0.629227377 C122.375763,2.69306917 128.721849,6.91167088 132.858625,13.3304916 C137.59546,20.6675855 141.332196,28.6683819 145.468971,36.3964238 C147.951036,41.0423408 150.160347,45.8519105 152.869708,50.3523584 C155.306314,54.3891239 158.915764,57.2712289 163.452579,58.9077554 C168.680372,60.7897609 173.526309,60.1260585 177.553983,56.289313 C181.763493,52.279823 183.090897,47.1065808 180.872495,41.7878696 C179.481447,38.4511738 176.899372,35.559977 174.617327,32.6596883 C172.180721,29.5593797 169.016769,26.9500291 166.962019,23.6406087 C161.779685,15.2761398 165.96192,6.32070297 175.681069,4.91147179 C179.54509,4.35687114 183.563672,4.92965542 187.509519,4.94783905 C194.746603,4.96602268 202.065513,5.66609236 209.193496,4.79327821 C221.503812,3.29312889 233.304986,4.69326826 244.933417,8.63002374 C260.13493,13.7759905 275.390994,18.78558 290.51068,24.1588421 C294.156498,25.4589715 297.865958,27.4228034 300.702604,30.0048786 C308.848869,37.414707 305.99404,49.0613208 295.492995,52.3980166 C289.565132,54.2800221 283.646361,53.4708506 278.009436,51.4251925 C272.236134,49.3249834 266.690128,46.5883474 261.053203,44.1335576 C251.988664,40.1786185 243.033227,35.9145577 233.805036,32.3869339 C229.377323,30.6867646 224.44956,29.7048487 219.712724,29.5775633 C212.32108,29.3775434 206.529594,33.9870931 204.729415,40.2786284 C203.129256,45.9064613 205.502219,52.2070885 211.275521,56.3165884 C213.739403,58.0713085 216.639691,59.3441625 219.512705,60.3442621 C222.603921,61.4170961 225.876974,62.0717067 229.131844,62.6081238 C239.823817,64.3719357 249.96119,67.8086414 260.080379,71.6817542 C268.444848,74.8729809 277.200265,77.264128 285.982957,79.0915826 C295.583913,81.0826899 304.257503,78.146034 311.65824,71.6544787 C313.976652,69.6270042 316.231422,67.4813361 318.758947,65.7538914 C321.277379,64.0446304 323.968556,62.353553 326.841569,61.4352797 C334.251398,59.0441326 341.352105,63.4082034 342.543132,71.1180617 C343.006815,74.0819931 342.579499,77.2368526 342.224919,80.2735185 C341.888522,83.1010726 341.006616,85.8558923 340.552025,88.6743546 C338.815488,99.4572461 342.315837,108.412683 351.071254,114.722402 C356.735454,118.804626 363.18155,121.814017 369.309433,125.259814 C382.874419,132.878755 397.31222,136.833694 412.204611,135.315361" id="Fill-7" fill="#05385E"></path>
                        <path d="M128.249075,422.253012 C124.857828,422.253012 121.748428,422.525767 118.711762,422.198461 C108.892603,421.152903 104.046666,413.233933 107.883412,404.187578 C109.410836,400.596311 111.520137,397.095963 114.011294,394.086572 C123.130384,383.076385 124.030473,370.375121 121.402939,357.255633 C120.50285,352.746094 117.702571,348.363839 114.920476,344.545277 C112.374768,341.054021 108.574389,338.499221 105.510448,335.362545 C102.301038,332.071309 98.8279648,328.889174 96.3095323,325.106979 C91.6545235,318.115374 92.8364594,311.187412 98.918883,305.51412 C104.446706,300.359061 111.529229,300.049939 118.175345,304.923152 C120.284646,306.46876 122.103009,308.4235 123.939555,310.305506 C125.630633,312.03295 127.112598,313.960415 128.785492,315.715135 C137.650011,324.997877 144.659799,326.097987 155.870006,319.95192 C158.952131,318.260843 161.816053,316.096991 165.025463,314.733219 C168.616729,313.196703 172.417108,311.77838 176.253853,311.296513 C181.454371,310.641903 185.791166,312.951224 188.282323,317.715334 C190.691654,322.324884 189.627912,326.934434 186.473052,330.652986 C184.109181,333.435081 181.063423,335.817136 177.935839,337.735509 C174.208195,340.035738 170.098695,341.69954 166.107389,343.545178 C149.733032,351.118659 143.905179,365.101869 142.714151,381.912633 C142.695968,382.130837 142.714151,382.34904 142.723243,382.567244 C143.114191,389.831603 146.559989,394.895744 152.442392,396.868667 C157.979307,398.714306 164.261751,396.523178 168.489444,390.586224 C171.016968,387.040416 172.753505,382.930916 174.83553,379.066895 C177.335779,374.43007 179.526906,369.593225 182.363552,365.174604 C186.754898,358.364835 192.800955,353.355245 200.419895,350.327671 C206.375033,347.9638 212.402906,347.600127 218.494421,349.582142 C222.876676,351.018649 227.122553,352.92793 231.559358,354.155325 C234.896054,355.08269 238.496412,355.910045 241.887659,355.628199 C250.652168,354.891762 254.92532,346.290906 250.724902,338.571956 C248.524683,334.526098 244.978876,331.953115 240.869376,330.152936 C237.050814,328.480042 233.068599,327.143545 229.286405,325.370642 C219.703633,320.888377 216.357845,314.560475 217.776168,304.123072 C218.130749,301.513722 218.603523,298.886187 218.594431,296.267745 C218.567156,287.812358 213.57575,282.339086 205.129455,282.557289 C200.428987,282.675483 195.692152,284.302918 191.137153,285.7667 C186.327583,287.303216 181.790768,289.630721 177.017566,291.276339 C169.644104,293.822047 162.016072,294.749412 154.242571,293.812955 C137.368165,291.785481 127.085323,278.966023 129.040063,262.06434 C130.212907,251.863325 133.822357,242.344196 139.231986,233.706972 C142.823253,227.970038 147.087314,222.560408 151.67868,217.578094 C157.370155,211.404752 164.907269,208.18625 173.144453,206.849754 C179.636008,205.795103 185.927543,206.504265 191.455366,210.413745 C200.347161,216.714372 200.39262,228.260976 191.182612,234.052461 C187.182214,236.570894 182.290818,237.680095 177.763094,239.325713 C174.671878,240.444007 171.453375,241.234994 168.398526,242.435114 C166.580163,243.153367 164.852718,244.226201 163.288926,245.408137 C157.24287,250.008595 155.351773,256.554701 158.297521,262.191626 C161.088707,267.528521 167.180223,269.737831 174.371848,267.57398 C178.135859,266.437503 181.79986,264.81916 185.318392,263.046256 C193.046434,259.145868 201.065414,256.254671 209.648086,255.027276 C210.084493,254.972725 210.511809,254.863624 210.939124,254.781797 C226.4043,251.726948 228.895457,249.08123 231.086584,233.379667 C231.322971,231.643131 231.559358,229.88841 231.950306,228.179149 C234.268719,217.969042 241.8422,213.541329 251.779553,216.914392 C255.707216,218.250888 259.453044,220.223812 263.107953,222.224011 C282.646261,232.94326 303.611984,234.743439 325.250502,232.3432 C331.742057,231.624947 337.297156,228.43372 342.843162,225.206126 C346.052572,223.342304 349.361993,221.378473 352.898708,220.396557 C363.163367,217.523543 371.782406,225.642533 369.218515,236.016293 C368.209323,240.098518 365.863635,244.217109 363.108816,247.444703 C356.017201,255.736438 346.579898,259.982315 335.71518,259.727744 C327.841669,259.545908 319.986342,258.227595 312.167382,257.136577 C302.802813,255.836448 293.520071,253.918075 284.137319,252.881608 C278.718598,252.29064 273.11804,252.454293 267.690227,253.09072 C255.798134,254.499951 247.624594,262.555298 245.633486,274.311014 C243.324166,287.994194 246.188087,300.131766 256.78005,309.769089 C260.353133,313.03305 263.935308,316.297011 267.690227,319.342769 C277.891243,327.607228 282.782638,337.953712 280.755164,351.227761 C279.073178,362.228856 279.636871,373.057206 282.200762,383.958291 C285.401081,397.568737 280.18238,408.524373 269.917722,417.3798 C266.4992,420.325548 262.562444,422.14391 257.907435,422.107543 C249.188386,422.0439 243.49691,415.32505 245.142528,406.787836 C245.597119,404.442148 246.615402,402.19647 247.379115,399.905333 C248.079184,397.823308 249.006549,395.795833 249.479324,393.668349 C251.379513,385.231145 247.160911,378.403193 238.560055,377.412185 C233.450455,376.821217 227.877173,377.093972 222.967594,378.530478 C216.939721,380.29429 211.048226,383.130936 205.711331,386.485816 C199.601632,390.331653 194.082901,395.141223 188.473251,399.741681 C184.863801,402.705612 181.99988,406.342338 180.908862,411.070081 C179.936038,415.252315 180.836128,419.007234 183.945528,421.971166 C187.182214,425.053291 191.091694,425.107842 195.028449,423.54405 C197.055924,422.734878 198.928838,421.534759 200.856302,420.471017 C202.774675,419.407274 204.602129,418.13442 206.593237,417.225239 C211.475541,414.988653 216.357845,414.370409 220.79465,418.252614 C224.849599,421.807513 226.013352,427.662641 223.513103,433.435943 C222.403901,436.008927 220.758283,438.463717 218.903553,440.573017 C216.748793,443.036899 214.257636,445.291669 211.630102,447.246409 C201.756392,454.565319 195.155735,464.19355 190.955317,475.621961 C189.891574,478.504066 188.81874,481.458905 187.200397,484.04098 C185.345667,486.977636 183.181816,489.868833 180.617924,492.178154 C176.762995,495.642135 172.080711,496.76952 167.143856,494.451107 C162.170633,492.114511 158.833938,488.077746 159.152151,482.58629 C159.388538,478.340413 161.015973,474.103628 162.50703,470.039587 C163.698058,466.766534 165.743716,463.802602 167.162039,460.593192 C170.935142,452.028703 169.334983,444.200651 163.334386,437.281781 C154.015276,426.535257 142.714151,420.216446 128.249075,422.253012" id="Fill-8" fill="#05385E"></path>
                        <path d="M51.44143,408.251618 C42.640554,403.214753 33.7669435,398.441551 24.0477943,395.37761 C22.8022157,394.97757 21.6293717,394.322959 20.4747113,393.695624 C10.9828575,388.467831 8.69172034,380.248831 14.1195333,370.956997 C14.2286351,370.766069 14.3195532,370.556957 14.4650223,370.393305 C25.9025243,356.719216 33.5123727,340.963103 39.8584589,324.434185 C42.495085,317.560773 47.5228581,312.151144 53.4416291,307.732522 C59.3240328,303.350268 65.5519254,303.022963 70.5615149,306.641505 C75.8165835,310.432791 77.9077007,317.097091 75.8984098,323.697748 C73.9163943,330.189303 69.7432517,335.307994 65.3337219,340.235758 C61.9606589,344.00886 58.1330051,347.409199 55.0963392,351.418689 C52.614274,354.68265 50.4776977,358.419386 49.1502929,362.283407 C47.4046646,367.329363 49.732169,373.248134 53.5325472,375.839301 C57.3783846,378.457744 63.1698701,377.93951 67.5793999,374.184591 C70.4069541,371.766169 72.8162848,368.86588 75.4892782,366.247438 C81.0443765,360.810533 87.281361,359.437669 92.0636552,362.537977 C97.1459792,365.847398 99.1461783,372.793544 96.4640932,379.657863 C92.2363996,390.504397 85.3538964,399.578028 76.6893976,407.269703 C72.9435702,410.597307 68.3794796,412.152007 63.0516765,412.524771 C59.1603801,411.133724 54.9781457,410.270001 51.44143,408.251618 Z" id="Fill-9" stroke="#FFFFFF" stroke-width="5"></path>
                        <path d="M339.233712,362.047019 C338.442724,371.893454 337.906307,381.767164 337.188054,391.631782 C336.933483,395.123039 336.724371,398.659755 336.033393,402.078277 C335.151487,406.378705 332.487586,409.597207 328.641749,411.733783 C322.913906,414.915918 317.004227,413.697615 313.876643,407.96068 C312.040096,404.596709 310.912711,400.559944 310.576314,396.73229 C309.467113,384.258321 308.50338,371.747985 308.24881,359.237649 C308.139708,353.409796 309.676224,347.527392 310.694508,341.69954 C311.2582,338.462854 312.485595,335.344362 313.085655,332.107676 C314.904018,322.388527 311.203649,314.769586 302.339131,310.260047 C298.82969,308.478051 294.874751,307.532502 291.419862,305.650497 C287.419464,303.468462 283.155403,301.259151 280.055094,298.04974 C272.508889,290.23078 276.181981,279.066033 286.892138,277.002191 C290.892537,276.229387 295.411168,276.074826 299.284281,277.129476 C307.512373,279.384246 315.649546,282.193617 323.477598,285.575772 C329.741858,288.285132 333.805899,293.658394 336.078852,300.168133 C339.579201,310.205496 341.452115,320.55198 341.988532,331.753095 C341.097534,341.463152 340.061067,351.745994 339.233712,362.047019 Z" id="Fill-10" stroke="#FFFFFF" stroke-width="5"></path>
                        <path d="M108.665308,199.96725 C120.50285,202.194745 124.139575,211.495671 117.311623,221.542125 C115.956942,223.524141 114.402242,225.387962 112.811175,227.197233 C106.792394,234.034278 104.546716,241.980523 105.455897,250.981419 C105.928672,255.563693 106.583282,260.200518 106.246885,264.746426 C105.992314,268.337692 105.037674,272.228988 103.219311,275.29293 C97.8642325,284.321101 85.717569,284.539305 79.4624009,276.074826 C76.7439485,272.392641 75.6983899,268.12858 75.7620326,263.673591 C75.8347671,259.291337 76.2348069,254.909083 76.7075812,250.554104 C77.4985691,243.326112 76.1620724,236.607261 72.6344485,230.252083 C70.8251776,226.997214 68.9704475,223.715069 67.6612263,220.251088 C63.7426544,209.922787 68.3612959,201.621961 79.1805547,199.739955 C83.908298,198.921692 88.7724185,198.939875 93.8547425,198.548927 C98.6461285,198.985334 103.737544,199.030794 108.665308,199.96725 Z" id="Fill-12" stroke="#FFFFFF" stroke-width="5"></path>
                    </g>
                </g>
            </g>
        </g>
    </g>
</svg>