<?xml version="1.0" encoding="UTF-8"?>
<svg width="387.52589px" height="352.49696px" viewBox="0 0 387.52589 352.49696" version="1.1" xmlns="http://www.w3.org/2000/svg" xmlns:xlink="http://www.w3.org/1999/xlink">
    <title>shape-top-left</title>
    <g id="Page-1" stroke="none" stroke-width="1" fill="none" fill-rule="evenodd">
        <g id="Landing-Page" transform="translate(-0.4741, -80)">
            <g id="Group" transform="translate(0.4741, 80)">
                <g id="Group-31" transform="translate(-332.4741, -188)">
                    <g id="shape-top-left" transform="translate(0, 75)">
                        <path d="M268.119116,83.3816345 C277.608967,75.9136141 284.322135,66.9854513 289.705903,57.015416 C291.098427,54.437352 292.381436,51.7528192 293.313081,48.9846324 C296.511095,39.4784965 293.786889,32.4515609 285.153391,27.4855555 C282.921245,26.2079309 280.409986,25.3181565 278.396112,23.7667552 C275.668864,21.6678004 272.697486,19.4851916 270.890475,16.6637704 C265.940968,8.9295783 271.088212,0.12309403 280.274613,0 C284.48793,-0.0518188702 288.234284,1.40071869 291.670344,3.64416676 C294.285034,5.35527121 296.803898,7.22607875 299.229218,9.19575011 C305.776591,14.5115813 313.19781,17.1276699 321.6465,17.1428797 C325.303872,17.1504846 329.009158,17.4318662 332.606449,18.0782835 C337.930135,19.0288971 342.047626,22.1012802 345.022806,26.5805714 C350.112251,34.2311095 346.26931,43.1364576 337.187861,44.4749216 C333.941173,44.9540308 330.582688,44.6498345 327.275157,44.7410934 C319.305599,44.9464259 315.534148,47.7374274 313.081449,55.3195214 C312.403059,57.4184762 311.870691,59.5706653 311.399164,61.7228545 C309.572379,70.0654393 305.603191,77.1608191 299.328846,82.9785743 C296.901246,85.2296273 294.427252,87.4654704 292.283328,89.9750903 C290.392659,92.1881187 288.56055,94.5912699 287.351313,97.2149634 C283.83768,104.819872 286.166412,111.877227 293.334376,116.151186 C298.979765,119.520161 305.101243,121.406178 311.697291,121.345339 C320.247892,121.276895 325.074193,116.120766 324.465012,107.610874 C324.256627,104.698194 323.514353,101.808328 322.823035,98.9564875 C320.671505,90.0663492 322.905171,82.4082062 329.784135,76.5144019 C333.657497,73.1986617 337.92253,70.0046001 342.547292,67.9740894 C351.114625,64.2096596 359.93217,60.8558949 368.903342,58.2017818 C384.939806,53.4639236 398.827783,59.0231119 406.95477,72.6815279 C410.931564,79.3662427 411.123977,86.2106605 407.464323,90.8116303 C403.851061,95.3593657 397.156145,96.6826198 389.658113,94.0285066 C386.379483,92.8649556 383.268929,91.2146904 380.127954,89.6861038 C375.453758,87.419841 370.668524,85.5794531 365.380583,85.5414285 C359.81581,85.4957991 354.825234,86.9711514 350.939703,91.2070855 C344.755101,97.9450346 346.459441,107.595664 354.710394,111.466562 C357.326606,112.698557 360.282012,113.344975 363.153,113.869713 C370.751422,115.253807 378.401559,116.356519 386.006825,117.702587 C393.734536,119.071471 401.393799,119.025842 408.981574,116.942097 C417.506316,114.599785 425.98847,114.455291 434.608278,116.630295 C442.494939,118.622781 450.574013,119.17794 458.715451,118.835719 C464.46199,118.599967 470.105097,119.16273 475.506357,121.360549 C481.578402,123.839749 486.159054,127.90077 488.723549,133.969487 C490.222547,137.520979 491.243935,141.277804 492.735327,144.829297 C494.148386,148.198271 495.406297,151.802998 497.588248,154.647234 C503.721134,162.639993 514.253667,161.407998 518.692861,152.403786 C519.662532,150.434114 520.451959,148.33516 520.985849,146.205785 C522.531999,140.061019 525.73838,134.889681 530.800445,131.269745 C541.304078,123.778909 543.347613,114.059836 541.428804,101.709464 C538.106824,80.3320661 529.779818,61.6087809 515.892602,45.1593633 C513.301488,42.0945851 510.864,38.7560302 509.05927,35.189328 C506.224788,29.5921152 506.259011,23.7211257 509.966579,18.4128995 C516.14966,9.56078573 529.255815,10.1919931 534.281375,19.7741781 C536.013094,23.0747085 536.481579,27.0977052 537.22005,30.8469252 C537.820866,33.9040985 537.666479,37.1133699 538.369206,40.1325187 C540.056054,47.3799967 545.737187,50.7261565 552.972838,48.939003 C554.745625,48.4979183 556.429431,47.6994028 558.152024,47.0605905 C559.876898,46.4217782 561.55462,45.5928431 563.329689,45.1669683 C570.972221,43.3417902 576.293626,48.604387 574.145138,56.1256417 C573.306277,59.0611364 571.811082,62.0194459 569.907484,64.3997824 C562.26267,73.9743624 560.169701,84.7429131 561.966825,96.6065707 C563.206484,104.789452 563.979939,113.048383 565.387674,121.200845 C567.825162,135.307951 576.924102,143.772214 589.805902,148.677381 C594.404806,150.42651 599.139085,150.715496 603.79731,148.662171 C611.2923,145.354035 613.082579,136.745279 607.243256,131.003573 C605.049137,128.843779 602.356112,127.06423 599.627343,125.604088 C588.157841,119.474531 583.225826,109.922766 585.304345,97.2529879 C586.636788,89.1233405 588.309946,80.8872244 591.173329,73.2062666 C596.052868,60.1106138 597.1967,47.1670592 593.194809,33.7520003 C592.411466,31.1283068 591.956671,28.3525151 591.751329,25.614748 C591.561197,23.0823134 591.591618,20.4358052 592.081398,17.949 C593.318774,11.6597405 597.811205,7.30212784 603.351641,6.57205661 C608.882952,5.84198537 614.694896,8.76987522 617.209197,14.5496058 C618.855737,18.3444553 620.063453,22.6716483 620.065735,26.7630892 C620.07258,45.9046444 619.866477,65.0538045 612.799664,83.3436099 C611.2923,87.252533 610.277757,91.4656524 609.802428,95.6255375 C608.876867,103.709555 611.99959,110.287801 619.369853,113.907738 C625.108026,116.729159 631.335218,118.554337 637.349463,120.812995 C642.846549,122.873925 648.447067,124.706708 653.804216,127.07944 C656.057657,128.075683 658.143781,129.94649 659.71655,131.893347 C665.601505,139.186454 662.133504,149.209724 652.996537,151.301074 C650.177265,151.939886 647.118427,152.091985 644.236031,151.795393 C635.541691,150.920829 628.199567,153.460868 622.357962,159.917436 C611.770671,171.62139 598.421908,173.317285 583.885202,170.701196 C576.139239,169.309498 569.824586,165.514648 565.187656,159.020056 C563.375321,156.480017 561.484651,153.947582 559.298137,151.742159 C554.823199,147.217238 548.984636,146.220995 544.173545,148.821874 C539.656017,151.26305 537.425392,156.594091 538.437653,162.647598 C539.15483,166.944371 540.920012,170.853294 544.015355,173.842023 C548.637075,178.2985 553.359946,182.724557 558.485895,186.572641 C563.607281,190.413119 569.838276,191.858052 576.195518,191.934101 C585.573571,192.048175 594.960751,192.01015 604.33196,191.690744 C611.044368,191.454992 617.317952,189.249568 623.215836,186.047902 C626.289885,184.390032 629.298528,182.602878 632.385505,180.960218 C637.697023,178.146402 643.386523,176.359248 649.381754,177.241418 C662.573088,179.203484 670.824802,173.400939 675.84808,161.605725 C679.539676,152.936129 685.733405,146.160156 693.020011,140.342401 C696.942046,137.216783 701.144716,134.631114 706.329226,134.136795 C711.049815,133.688106 715.236514,134.691953 717.901399,138.905073 C720.719911,143.361549 720.745008,148.183061 717.69986,152.411391 C715.597004,155.331676 712.680384,157.727222 709.892294,160.069534 C705.960371,163.385274 701.647425,166.252325 697.791555,169.651719 C691.702018,175.005574 688.06518,181.956461 688.234777,190.032874 C688.505525,202.90038 684.305136,213.66893 675.748451,223.175066 C670.902376,228.559342 668.125693,235.244056 666.12855,242.248177 C665.076742,245.936558 663.854576,249.693383 661.970751,253.001518 C657.492771,260.857389 648.357325,261.785188 641.936959,255.35904 C634.646551,248.058327 634.908933,235.631907 642.802438,228.072627 C645.426255,225.563007 648.655451,223.654175 651.727979,221.654084 C655.014214,219.517105 658.054039,217.190003 659.810095,213.570066 C661.778338,209.51665 662.341888,205.318741 659.428311,201.569521 C656.435639,197.721437 652.164521,197.576943 647.854617,198.862173 C645.944174,199.424936 644.102939,200.367945 642.381867,201.394608 C640.333769,202.618998 638.40051,204.048721 636.499954,205.501258 C628.86883,211.334223 620.228488,214.140435 610.696047,213.448388 C598.040884,212.528194 585.765985,213.851448 573.68578,217.828815 C570.266452,218.954342 566.447088,219.167279 562.801884,219.228119 C556.793723,219.326982 551.69135,217.01509 547.817988,212.277232 C547.468146,211.851357 547.062025,211.463507 546.750969,211.014817 C536.016897,195.38673 520.286164,186.283654 503.698318,178.458203 C499.793775,176.617815 495.334807,175.499894 491.028706,175.066414 C484.755122,174.427601 479.864175,177.712922 477.708082,182.88426 C475.564918,188.017573 476.923218,194.595819 481.467365,198.512347 C483.786211,200.504833 486.577343,202.276777 489.458979,203.2426 C498.839314,206.368218 507.157954,211.182125 514.981491,217.190003 C519.623746,220.756705 524.983937,223.372794 529.962344,226.513621 C535.337747,229.897805 538.17299,234.810576 538.327377,241.1987 C538.483285,247.685687 534.998552,253.70117 529.605657,256.005457 C523.357931,258.667175 517.605308,257.496019 512.759993,252.948284 C510.241129,250.583157 508.12002,247.716107 506.17003,244.841451 C501.212157,237.525529 494.519523,232.734436 486.148406,230.057509 C482.12522,228.772279 478.172764,227.228483 474.260615,225.631452 C468.764289,223.380399 464.690908,219.418241 461.89217,214.269718 C455.830773,203.120922 453.273122,191.272474 455.246689,178.587486 C456.084789,173.195606 458.027174,168.328465 461.368928,163.993667 C463.27861,161.522071 465.249135,159.065686 466.839396,156.388758 C469.243421,152.342947 469.817618,148.038568 467.050822,143.878683 C464.185919,139.574305 459.901872,138.121767 455.015489,138.958307 C452.351364,139.414602 449.782305,140.600968 447.265723,141.680865 C445.762162,142.327282 444.383327,143.31592 443.049363,144.289348 C432.563222,151.947491 421.291457,152.715587 409.578587,147.795211 C398.760096,143.247476 387.594805,140.638992 375.857597,140.220722 C369.712542,140.00018 363.964482,138.030508 358.42937,135.36879 C355.12336,133.779364 351.789212,132.09868 348.285466,131.102437 C343.819653,129.824812 339.378938,130.303921 336.260019,134.311708 C333.302331,138.114162 333.960947,142.243628 335.868348,146.304649 C336.259258,147.133584 336.650169,147.977729 337.17189,148.730615 C343.001327,157.111224 344.03184,166.351188 342.358682,176.17673 C341.743416,179.789062 341.438445,183.485048 341.357068,187.150614 C341.188231,194.694683 344.357346,200.740586 350.442319,205.105803 C358.774649,211.083261 367.864463,215.189912 378.193935,216.58161 C386.193154,217.661507 394.155107,219.174884 402.028839,220.962038 C408.994502,222.543859 415.476471,222.163613 421.774392,218.627331 C424.163966,217.288867 426.72618,216.117711 429.350758,215.35722 C436.106516,213.387549 442.353481,216.330648 444.299669,223.068597 C447.439883,233.928407 445.705122,244.362342 438.788893,253.374159 C433.644691,260.081688 425.653838,260.112108 419.538443,254.11944 C418.098767,252.704927 416.880403,251.069871 415.558608,249.541285 C408.004297,240.78043 399.944996,239.449571 390.110627,245.32056 C388.057965,246.544951 386.034204,247.837785 383.902448,248.910077 C376.77175,252.499594 370.451774,251.670659 364.608648,246.233149 C362.6039,244.369947 360.728442,242.255782 359.234767,239.966705 C354.577302,232.840905 348.183555,227.730406 340.963115,223.486867 C336.83954,221.060902 332.725852,218.619726 328.656274,216.102501 C319.325373,210.33798 315.524261,202.056235 317.500869,191.21924 C318.227172,187.241873 319.072117,183.279715 319.767999,179.294743 C320.82285,173.256445 320.762768,167.210543 319.587754,161.187455 C317.703169,151.514011 312.032683,145.475714 302.406698,143.224661 C299.899241,142.639083 297.392546,142.023085 294.859992,141.566791 C287.915624,140.304376 282.106721,137.003846 277.200564,131.999816 C274.367603,129.102346 271.53388,126.21248 268.640077,123.383454 C263.456327,118.318585 257.222291,116.782393 250.317469,118.592362 C246.603057,119.558185 242.922109,120.896649 239.461713,122.562124 C227.1967,128.455928 214.813806,129.026296 201.936569,124.615449 C197.484446,123.094468 192.624681,122.151459 187.932232,122.07541 C181.365085,121.976546 175.667219,124.547005 172.440305,130.81345 C167.250471,140.889954 174.006229,151.453172 185.292444,150.677472 C188.727743,150.434114 192.077863,149.11086 195.494909,148.418814 C198.542339,147.802816 201.642245,146.875017 204.694239,146.958671 C213.066876,147.202028 217.433059,154.571185 213.935397,162.176093 C212.03256,166.320769 209.010988,169.720163 205.006815,171.682229 C197.597004,175.302166 189.972725,178.503832 182.332475,181.62945 C180.359668,182.43557 178.001275,182.488805 175.81248,182.542039 C166.9166,182.747372 161.595195,178.754794 159.338713,170.168853 C158.404786,166.61736 157.940865,162.936584 156.964349,159.400302 C154.659953,151.042507 148.77728,147.03472 141.085314,148.365579 C133.472442,149.673624 128.201232,156.259475 129.138201,164.373912 C129.611249,168.472958 131.127739,172.610028 132.938553,176.359248 C135.893959,182.473595 139.459308,188.30656 142.808667,194.230784 C143.531167,195.508408 144.373831,196.725194 145.258323,197.89635 C151.92586,206.756068 158.790373,209.067961 169.412648,206.010787 C171.531476,205.402395 173.567405,204.489805 175.699922,203.949857 C178.360244,203.265415 181.068479,202.43648 183.776715,202.352826 C191.967586,202.094259 196.816704,208.368309 194.564024,216.231785 C193.970813,218.30032 192.962355,220.422089 191.593407,222.057145 C189.370388,224.718863 186.8462,227.190458 184.177512,229.411091 C176.597343,235.723166 168.38898,236.757433 159.598813,231.905501 C156.703488,230.308471 153.811966,228.635391 150.745523,227.433815 C142.300635,224.12568 135.931985,228.26275 135.512175,237.297382 C135.366914,240.407789 135.681012,243.541012 135.887114,246.659024 C136.411117,254.575734 133.515032,260.948648 126.529595,264.667448 C114.706448,270.971917 102.70838,276.95698 90.6137256,282.721501 C84.6534785,285.565737 78.1441312,285.611367 71.6566111,284.47063 C67.4927279,283.740559 63.3364499,282.759526 59.138343,282.470539 C44.4670241,281.481901 36.1057946,293.018548 41.3336545,306.760618 C43.9825687,313.726714 48.234673,319.46842 54.9691361,322.776555 C66.4219064,328.404188 75.8935048,336.313293 83.9804124,346.10081 C88.8812459,352.032639 95.1860116,356.101265 102.412535,358.793403 C106.027318,360.139472 109.594188,361.645244 113.078921,363.295509 C114.88213,364.147259 116.626778,365.2956 118.109044,366.634064 C126.687784,374.360651 123.955973,386.627369 112.935182,390.209281 C108.482298,391.661818 104.189886,390.984982 100.019158,389.220643 C92.8200133,386.163469 86.4004081,381.859091 80.9565586,376.277088 C75.0485598,370.223581 69.3141891,363.987556 63.7205159,357.645062 C58.3732532,351.576345 52.1985377,346.777647 44.492882,344.222398 C34.488915,340.914263 28.0556204,334.244758 24.5503532,324.381191 C22.457384,318.494992 19.7270934,312.83694 17.5854505,306.96595 C13.1287645,294.744862 15.4612997,283.748164 24.316111,274.287658 C27.445678,270.949103 30.973761,267.945164 34.519336,265.032484 C40.161683,260.385884 46.7737013,258.355374 54.0458568,258.864903 C58.810556,259.191914 63.5653684,259.769887 68.3004071,260.423909 C93.6520294,263.899352 115.594743,246.955616 118.313626,221.456357 C118.75245,217.334496 118.052765,213.030118 117.464878,208.870233 C116.256401,200.322316 114.784782,191.812423 113.38009,183.294925 C113.022642,181.119921 112.725276,178.899288 112.024071,176.830753 C110.566141,172.526374 107.780332,169.385547 102.986733,169.058536 C98.2212733,168.731525 95.0217378,171.378033 92.9067133,175.439054 C92.3165446,176.572186 91.882284,177.804181 91.4989785,179.020966 C91.1133915,180.252961 90.8890362,181.522981 90.5802624,182.777791 C87.6195323,194.770732 81.2318693,199.417331 68.8411415,197.622573 C62.1454652,196.649145 55.48021,194.945645 49.0461549,192.823876 C39.875725,189.804727 30.6954082,187.660143 20.9523018,187.88829 C16.9648608,187.979549 12.8504118,187.363551 8.97476817,186.367308 C3.99940307,185.089683 0.536725406,181.903227 0.0423831076,176.382063 C-0.387314428,171.59097 2.47758932,166.845507 7.39591493,164.427146 C13.2223093,161.552491 19.5316381,160.670322 25.6842984,162.381426 C32.7282959,164.335888 39.5076301,167.256173 46.3896354,169.788607 C50.5238581,171.309589 54.5736623,173.089137 58.7732902,174.397182 C62.539418,175.568338 66.3998511,175.363005 70.1393605,173.864838 C74.4599122,172.138524 77.1166598,169.028116 77.5014862,164.389122 C77.9038048,159.544795 75.8653653,155.575033 71.5166742,153.483683 C68.7909468,152.175639 65.5723982,151.802998 62.5302917,151.255445 C59.2843641,150.669867 55.8589523,150.79915 52.7354695,149.871351 C44.849569,147.521434 42.4828102,139.59712 47.7791175,133.315465 C49.8812131,130.821055 52.7164563,128.950247 55.1912099,126.760034 C59.724709,122.759852 64.6871452,119.124705 68.6593757,114.622599 C75.5254099,106.835173 83.6792439,101.154306 93.1394344,97.1541241 C105.503316,91.9219469 117.820805,86.5756961 130.259978,81.5260367 C133.260255,80.3092514 136.669696,79.4803163 139.879118,79.5183408 C149.090617,79.6172047 153.780024,88.4921331 149.070843,96.4088431 C146.407479,100.888134 142.257285,103.671531 137.595257,105.519524 C132.821432,107.420751 127.837701,108.789634 122.944472,110.386665 C115.077585,112.949519 107.115632,115.261412 99.3833579,118.181697 C95.6750302,119.588605 92.0419945,121.710374 89.011296,124.258019 C84.2792994,128.242991 83.2221674,134.349733 85.5942499,139.277713 C87.7184007,143.68856 92.7059343,146.304649 98.6030576,145.665837 C101.113556,145.39206 103.636223,144.58594 105.983208,143.604906 C108.516522,142.555429 110.930433,141.148521 113.257645,139.680774 C120.922993,134.836447 129.173946,131.353399 137.643931,128.144127 C144.651423,125.497619 151.457376,122.121039 157.958357,118.379424 C165.066239,114.287983 168.856703,107.641293 169.87733,99.4584115 C170.195991,96.9031621 170.413501,94.3098883 171.039415,91.830688 C171.662286,89.3590927 172.406081,86.8038434 173.684526,84.6364444 C176.993578,79.0240218 183.85733,77.8072364 188.887453,81.9595165 C190.824515,83.5641523 192.312105,85.7695758 193.773076,87.8609257 C195.137461,89.8153872 196.120061,92.0284157 197.40307,94.0437165 C202.307706,101.755094 209.473388,105.40545 218.452925,104.477651 C224.26563,103.884468 229.968059,102.180969 235.709274,100.933764 C248.427561,98.1579721 259.64837,92.5987838 268.119116,83.3816345" id="Fill-23" fill="#05385E"></path>
                        <path d="M249.936584,420.844881 C247.821106,422.725942 246.036575,424.62985 243.95905,426.114899 C237.25055,430.927978 229.835372,428.65852 227.215125,420.867728 C226.172947,417.768166 225.542934,414.402056 225.429835,411.13495 C225.016152,399.163176 218.529294,390.709824 209.612712,383.962373 C206.545383,381.639605 202.370598,380.459182 198.514614,379.613847 C194.989577,378.844668 191.204945,379.362531 187.549351,379.1036 C183.721452,378.829437 179.7926,378.768512 176.121066,377.801327 C169.335901,376.019269 166.233656,371.023414 166.880368,364.085573 C167.468633,357.779829 171.720842,353.652156 178.564454,352.997212 C180.737619,352.79159 182.961641,353.004827 185.153024,353.15714 C187.165271,353.301837 189.160818,353.682619 191.172305,353.850163 C201.855202,354.72596 206.836859,351.519779 210.421861,341.429066 C211.40787,338.656976 211.996894,335.709726 213.240221,333.059486 C214.630804,330.104621 216.211909,327.096446 218.336495,324.667059 C221.219374,321.361875 225.210469,320.394689 229.401954,321.986356 C233.46364,323.53233 235.356716,327.005058 235.451597,331.094653 C235.52143,334.156137 234.943032,337.331856 234.059496,340.279106 C233.006691,343.789912 231.364862,347.125559 229.897614,350.499284 C223.881369,364.35212 228.004539,376.346741 236.584861,387.534105 C236.696442,387.678802 236.829276,387.808268 236.959074,387.937733 C241.231018,392.271028 246.189145,393.527608 250.950677,391.479002 C255.429843,389.559863 258.137381,384.685858 257.480801,378.623815 C257.087612,374.991158 255.8959,371.449889 255.049558,367.878157 C254.033187,363.582941 252.720027,359.333418 252.042953,354.992507 C250.999257,348.283135 251.993615,341.779385 255.068534,335.648801 C257.472451,330.850953 261.033164,327.26399 265.932843,325.123997 C269.464712,323.578024 273.174198,322.412832 276.62333,320.714546 C279.217769,319.427504 281.925308,317.950071 283.881384,315.886235 C288.941224,310.547676 286.839409,302.779731 279.934314,300.28942 C276.312878,298.979531 272.680056,299.345081 269.117066,300.502657 C265.800768,301.584077 262.577075,302.962507 259.238765,303.960154 C250.765469,306.488544 245.173534,304.379014 240.267781,297.060391 C239.041153,295.23264 237.879045,293.321116 236.420147,291.683755 C231.710989,286.413737 225.563428,285.758793 220.411743,290.602335 C217.549358,293.290653 215.494605,296.946157 213.460346,300.396038 C211.316024,304.036311 209.772113,308.019287 207.708251,311.705253 C204.52251,317.401746 200.277133,322.230057 194.909118,325.969332 C183.253876,334.095212 169.732126,331.795291 161.568523,320.120526 C156.646831,313.083682 153.617455,305.117731 152.201064,296.702457 C151.260598,291.112582 150.915989,285.347549 151.016943,279.673903 C151.141427,272.644674 154.063018,266.430318 158.461724,261.015603 C161.926796,256.743233 166.242005,253.681749 171.865062,253.049652 C180.900056,252.044388 187.34213,259.248776 184.805378,267.999138 C183.704753,271.799339 181.270474,275.218758 179.356145,278.767642 C178.047539,281.189413 176.480097,283.474103 175.240566,285.933952 C174.505044,287.388538 174.016215,289.025899 173.701967,290.632798 C172.483689,296.877616 174.934668,302.033399 179.897349,303.914461 C184.596639,305.704134 189.62384,303.693607 192.907498,298.339818 C194.628269,295.537265 196.02037,292.483396 197.230299,289.414296 C199.886221,282.674462 203.286014,276.406796 207.961774,270.855 C208.198598,270.573222 208.410374,270.276212 208.632776,269.979202 C216.584603,259.462014 216.66734,256.415761 209.327308,245.373094 C208.512846,244.146977 207.689274,242.92086 206.982597,241.633819 C202.7691,233.949645 205.035629,226.96611 213.10511,223.546691 C216.294646,222.198725 219.728596,221.345774 223.12004,220.568979 C241.251512,216.403228 255.333443,205.855577 267.504081,192.314983 C271.157398,188.255851 272.853878,183.160993 274.523793,178.058519 C275.490066,175.103654 276.469243,172.026938 278.123217,169.445239 C282.938642,161.936225 292.817702,162.218003 296.976547,170.138261 C298.614581,173.26067 299.429803,177.137027 299.499636,180.693528 C299.68029,189.832287 296.146145,197.744929 289.223591,203.631813 C284.212331,207.896567 278.580925,211.445452 273.095257,215.116186 C266.531735,219.510406 259.675979,223.478151 253.248327,228.055146 C249.538841,230.690155 246.130698,233.911567 243.103599,237.338602 C236.464931,244.84 235.8334,254.428081 241.111847,262.896664 C247.25789,272.751293 255.777488,278.744795 267.734833,278.889492 C271.77223,278.942802 275.817976,278.996111 279.849301,278.80572 C290.804696,278.303089 299.595276,282.065211 305.694258,291.50098 C310.744989,299.314619 317.103567,305.787906 324.749497,311.179774 C334.298369,317.919609 337.117488,327.690465 335.623674,338.938754 C335.126495,342.685645 333.68126,346.021292 330.758151,348.587761 C325.280074,353.40084 317.998489,352.357499 314.295834,346.097449 C313.275668,344.376316 312.662354,342.411483 311.874459,340.545653 C311.157155,338.854982 310.605324,337.072924 309.722547,335.473641 C306.224835,329.137435 299.804775,327.21068 293.89252,331.368816 C290.370519,333.851512 287.050426,337.118618 284.780102,340.751275 C281.995899,345.214035 279.896362,350.270815 278.429874,355.335211 C276.750092,361.145938 275.973582,367.230829 275.030839,373.231947 C274.422839,377.093073 274.652831,380.961814 276.592209,384.533546 C278.309184,387.694033 280.948408,389.544632 284.532651,389.666482 C288.26415,389.795948 290.735623,387.648339 292.320523,384.480236 C293.136504,382.842875 293.642032,381.045586 294.250792,379.316837 C294.858793,377.572858 295.291452,375.767953 296.028492,374.084898 C297.838071,369.972456 300.542573,366.865278 305.461988,366.834816 C309.963925,366.796738 313.934525,369.812528 315.580909,374.815999 C316.314153,377.047379 316.649654,379.499613 316.665594,381.852843 C316.68457,384.594471 316.383227,387.389408 315.823806,390.077726 C313.727304,400.153208 314.950137,409.855524 318.667973,419.352217 C319.605402,421.743526 320.573193,424.195759 320.99219,426.708918 C321.469633,429.580012 321.722398,432.588186 321.401319,435.466895 C320.919321,439.777343 318.621671,443.090143 314.254845,444.384801 C309.857658,445.687074 305.539412,445.024514 302.685377,441.407089 C300.485644,438.619767 299.151231,435.063267 297.822131,431.689542 C296.749591,428.970761 296.385246,425.977817 295.487288,423.18288 C293.092479,415.71956 287.745717,411.713738 280.165066,410.723706 C268.389135,409.177732 257.836037,411.515731 249.936584,420.844881" id="Fill-24" fill="#FFFFFF"></path>
                        <path d="M333.216169,245.376157 C338.040185,251.914755 343.088573,258.892796 348.280226,265.764765 C353.245991,272.341247 358.382309,278.78135 363.39507,285.319948 C365.172618,287.638385 366.997921,289.956822 368.460135,292.472251 C370.297566,295.63169 370.418091,299.116922 369.206781,302.571848 C367.398912,307.731507 363.044867,310.239358 357.914613,308.398247 C354.91211,307.322371 351.972523,305.435799 349.640865,303.238588 C342.04251,296.078708 334.507829,288.82791 327.420377,281.167976 C324.118458,277.606978 321.817879,273.083753 319.227737,268.901474 C317.787506,266.567884 316.819519,263.946383 315.405061,261.605216 C311.151074,254.536256 304.62228,251.846566 296.607016,253.945282 C293.427896,254.778707 290.441312,256.377368 287.248547,257.119874 C283.54867,257.976029 279.665353,258.960986 275.954863,258.673075 C266.917793,257.983605 263.023106,249.005344 268.556625,241.784852 C270.622977,239.087585 273.350319,236.488814 276.34979,235.003802 C282.720916,231.85194 289.348252,229.094061 296.099145,226.866543 C301.507591,225.086044 307.013063,226.177073 312.034163,228.972835 C319.772751,233.291493 326.677521,238.693603 333.216169,245.376157" id="Fill-26" stroke="#FFFFFF" stroke-width="5"></path>
                        <path d="M439.062747,366.010645 C435.345518,369.321962 431.711334,372.724836 427.895061,375.921707 C419.871667,382.628269 410.415171,385.14609 400.13965,384.993495 C391.847311,384.871419 384.949219,381.552472 380.329158,374.700945 C374.320184,365.789381 367.797701,357.419531 359.800973,350.178886 C355.679946,346.440302 353.523054,341.549624 354.089133,335.773893 C354.940919,327.114112 362.676321,322.612552 370.557242,326.290098 C375.191779,328.449321 378.68349,332.027679 381.439984,336.254568 C383.956485,340.107599 386.153757,344.174262 388.589498,348.088331 C392.235871,353.940359 396.902407,358.388511 404.141823,359.349861 C410.578214,360.204395 416.322052,358.525847 421.056396,354.25318 C424.872669,350.819786 428.112197,346.745493 431.760857,343.106096 C434.354308,340.519606 437.129087,338.100971 439.974721,335.789153 C441.0825,334.89647 442.554459,334.324238 443.952515,333.927491 C448.270108,332.699099 452.403325,332.859324 455.669519,336.460572 C458.494582,339.581145 458.873238,344.555751 456.131982,348.858937 C454.17318,351.926102 451.665822,354.710965 449.085323,357.312715 C445.970744,360.440917 442.520174,363.24104 439.215124,366.186129 L439.062747,366.010645 Z" id="Fill-27" stroke="#FFFFFF" stroke-width="5"></path>
                        <path d="M387.217459,271.824912 C395.282232,265.083844 411.550357,267.62793 417.123002,276.517 C420.386775,281.719429 419.328131,287.81305 414.462006,291.827223 C407.981411,297.166759 393.658676,297.433354 386.982709,292.329947 C380.246162,287.180837 380.355964,277.56815 387.217459,271.824912" id="Fill-29" stroke="#FFFFFF" stroke-width="5"></path>
                        <path d="M427.128915,328.982485 C420.844045,333.06794 412.959319,335.545372 404.391907,332.914062 C395.410117,330.151956 393.205992,320.511514 399.891402,313.902464 C406.736721,307.131843 415.105785,305.431493 424.094495,308.409028 C432.978649,311.340399 434.912928,321.804087 427.128915,328.982485" id="Fill-30" stroke="#FFFFFF" stroke-width="5"></path>
                    </g>
                </g>
            </g>
        </g>
    </g>
</svg>