<?xml version="1.0" encoding="UTF-8"?>
<svg width="60px" height="57.5342466px" viewBox="0 0 60 57.5342466" version="1.1" xmlns="http://www.w3.org/2000/svg" xmlns:xlink="http://www.w3.org/1999/xlink">
    <g id="Page-1" stroke="none" stroke-width="1" fill="none" fill-rule="evenodd">
        <g id="Home-Concept-1b" transform="translate(-255, -4625)" fill-rule="nonzero">
            <g id="Footer" transform="translate(255, 4353)">
                <g id="Top" transform="translate(0, 270)">
                    <g id="social-tw" transform="translate(0, 2)">
                        <path d="M58.9920181,18.3392769 C62.5066565,29.1670278 56.5110969,43.0647159 45.9671819,50.7810442 C35.4232669,58.4973724 20.3309963,59.9908553 10.8621471,53.2286967 C1.39329794,46.4250524 -2.4521299,31.3657665 1.60004137,19.7912741 C5.65221264,8.2167817 17.601983,0.168568329 30.0479376,0.00262578552 C42.4938922,-0.163316758 55.4773798,7.55301152 58.9920181,18.3392769 Z" id="Path" fill="#87E3C7"></path>
                        <path d="M41.3365714,21.2457143 C40.4777143,21.6271429 39.5545714,21.8834286 38.5877143,21.9991429 C39.5751429,21.4085714 40.3354286,20.4691429 40.692,19.3505714 C39.7688571,19.9 38.7437143,20.2977143 37.6517143,20.5128571 C36.7765714,19.582 35.532,19 34.158,19 C31.5128571,19 29.37,21.1445714 29.37,23.7862857 C29.37,24.1617143 29.4128571,24.5277143 29.4942857,24.8765714 C25.5162857,24.6785714 21.9891429,22.7705714 19.6268571,19.8742857 C19.2154286,20.5822857 18.9788571,21.4042857 18.9788571,22.2828571 C18.9788571,23.944 19.824,25.408 21.108,26.2668571 C20.3228571,26.242 19.5848571,26.026 18.9402857,25.6677143 C18.9394286,25.6874286 18.9394286,25.7097143 18.9394286,25.7277143 C18.9394286,28.048 20.5894286,29.9834286 22.7802857,30.424 C22.3782857,30.5328571 21.954,30.5868571 21.5185714,30.5868571 C21.21,30.5868571 20.91,30.5577143 20.6177143,30.4985714 C21.2271429,32.404 22.9945714,33.7848571 25.0894286,33.8251429 C23.4514286,35.1074286 21.3874286,35.8762857 19.1425714,35.8762857 C18.756,35.8762857 18.3745714,35.8565714 18,35.812 C20.1188571,37.1662857 22.6354286,37.9625714 25.3388571,37.9625714 C34.1425714,37.9625714 38.9597143,30.6648571 38.9597143,24.3382857 C38.9597143,24.1308571 38.9562857,23.926 38.9468571,23.7194286 C39.8837143,23.0491429 40.6954286,22.2057143 41.3365714,21.2457143 Z" id="Path" fill="#05385E"></path>
                    </g>
                </g>
            </g>
        </g>
    </g>
</svg>