<?xml version="1.0" encoding="UTF-8"?>
<svg width="60px" height="57.5342466px" viewBox="0 0 60 57.5342466" version="1.1" xmlns="http://www.w3.org/2000/svg" xmlns:xlink="http://www.w3.org/1999/xlink">
    <g id="Page-1" stroke="none" stroke-width="1" fill="none" fill-rule="evenodd">
        <g id="Home-Concept-1b" transform="translate(-885, -3304)" fill-rule="nonzero">
            <g id="Group-21" transform="translate(-33, 2625)">
                <g id="Group-20" transform="translate(288, 252)">
                    <g id="squircle-arrow" transform="translate(630, 427)">
                        <path d="M58.9920181,18.3392769 C62.5066565,29.1670278 56.5110969,43.0647159 45.9671819,50.7810442 C35.4232669,58.4973724 20.3309963,59.9908553 10.8621471,53.2286967 C1.39329794,46.4250524 -2.4521299,31.3657665 1.60004137,19.7912741 C5.65221264,8.2167817 17.601983,0.168568329 30.0479376,0.00262578552 C42.4938922,-0.163316758 55.4773798,7.55301152 58.9920181,18.3392769 Z" id="Path" fill="#87E3C7"></path>
                        <path d="M42.6163882,28.108112 L33.9491435,19.3856491 C33.7017309,19.1366659 33.3719776,19 33.0203708,19 C32.6683737,19 32.3388155,19.1368622 32.0914029,19.3856491 L31.3044827,20.1777613 C31.0572652,20.4263517 30.9210712,20.7583948 30.9210712,21.1124301 C30.9210712,21.466269 31.0572652,21.8095045 31.3044827,22.058095 L36.3608307,27.1577345 L20.2965745,27.1577345 C19.5722879,27.1577345 19,27.7283537 19,28.4574346 L19,29.57727 C19,30.3063509 19.5722879,30.9345034 20.2965745,30.9345034 L36.4181961,30.9345034 L31.3046778,36.0626149 C31.0574603,36.3115981 30.9212664,36.6346086 30.9212664,36.9886439 C30.9212664,37.3422865 31.0574603,37.6700096 31.3046778,37.9187965 L32.091598,38.708356 C32.3390106,38.9573392 32.6685688,39.0930233 33.0205659,39.0930233 C33.3721727,39.0930233 33.7019261,38.955572 33.9493386,38.7065888 L42.6165834,29.9843222 C42.8645813,29.7345535 43.0009704,29.401136 43,29.046708 C43.0007753,28.6911018 42.8645813,28.3574879 42.6163882,28.108112 Z" id="Path" fill="#05385E"></path>
                    </g>
                </g>
            </g>
        </g>
    </g>
</svg>