<?xml version="1.0" encoding="UTF-8"?>
<svg width="124.858269px" height="124.678752px" viewBox="0 0 124.858269 124.678752" version="1.1" xmlns="http://www.w3.org/2000/svg" xmlns:xlink="http://www.w3.org/1999/xlink">
    <g id="Page-1" stroke="none" stroke-width="1" fill="none" fill-rule="evenodd">
        <g id="Home-Concept-1b" transform="translate(-1420.4743, -3909.521)" fill="#5963F5" fill-rule="nonzero">
            <g id="Group-16" transform="translate(255, 3826)">
                <g id="newsletter" transform="translate(1227.9034, 145.8604) rotate(-345) translate(-1227.9034, -145.8604)translate(1176.9034, 94.9873)">
                    <path d="M67.329353,24.1152257 C67.114775,22.7712598 66.2338762,21.6400438 64.9734325,21.089362 C63.7125855,20.5386803 62.2720496,20.6557027 61.1194999,21.4022177 C61.0860225,21.4239106 61.0533518,21.4463996 61.0212862,21.4700827 L47.4841211,31.4215599 L33.3090708,33.6262768 C31.5704652,33.8967418 30.2682757,35.2311548 29.9669792,36.849964 L25.7464088,37.506324 C24.6801743,37.6721057 23.7432109,38.2379127 23.1079473,39.0992609 C22.4728853,39.9606091 22.2155531,41.0144073 22.3837467,42.0666133 L23.0129602,46.0063658 C23.3263569,47.9692764 25.0492322,49.3737436 27.0026174,49.3737436 C27.2109435,49.3737436 31.8530063,48.6686242 31.8530063,48.6686242 C32.6441616,50.1930991 34.5939167,51.0952459 36.3873767,50.667159 L37.1902289,55.6939456 C37.4423177,57.2723542 38.3022428,58.6593078 39.6112891,59.599467 C40.6589699,60.3519525 41.8940031,60.7460074 43.1651353,60.7460074 C43.4825654,60.7460074 43.8022139,60.7215282 44.1218624,60.6717738 C45.721315,60.4230018 47.1269618,59.5743908 48.0796556,58.2825675 C49.0323493,56.9905452 49.4181459,55.4097484 49.1660572,53.8313398 L48.363205,48.8045533 L50.246207,48.5115993 C50.246207,48.5115993 66.2014071,53.3367811 66.2203642,53.3419556 C66.5769185,53.4386781 66.9389179,53.4860443 67.2978923,53.4860443 C68.2772066,53.4860443 69.2327237,53.1333851 69.9849565,52.4698604 C71.0128735,51.5631362 71.4982956,50.2193694 71.283516,48.8756025 L67.329353,24.1152257 Z M44.8119806,55.935951 C44.4943488,56.3666251 44.0258671,56.6494291 43.492649,56.7324194 C42.9602376,56.8152107 42.4258094,56.6884365 41.9891918,56.3749838 C41.5527757,56.0615311 41.2662013,55.5992132 41.1821045,55.0732097 L40.3794539,50.0464231 L44.3715311,49.4254882 L45.1743833,54.4522748 C45.2580768,54.9784773 45.1296124,55.5052769 44.8119806,55.935951 L44.8119806,55.935951 Z M27.0048357,45.3856299 L26.3756223,41.4458774 L30.3676995,40.8249425 L30.9969129,44.7644959 L27.0048357,45.3856299 Z M35.4102808,46.7819374 L33.9382843,37.5658303 L46.6100791,35.594959 L48.081874,44.8110661 L35.4102808,46.7819374 Z M52.1919287,44.9288845 L50.4775236,34.1942731 L63.3380825,24.7399419 L67.2918422,49.4955424 L52.1919287,44.9288845 Z" id="Shape"></path>
                    <path d="M75.2551981,37.0057147 L77.240034,36.6388097 C78.3262048,36.4379545 79.0267468,35.4784544 78.8049853,34.4957508 C78.5830234,33.5130472 77.5234961,32.8794835 76.4367244,33.0796135 L74.4518885,33.4465185 C73.3657177,33.6473736 72.6651757,34.6068737 72.8869372,35.5895773 C73.081254,36.4497376 73.9176175,37.0426972 74.8515401,37.0426972 C74.9843566,37.0428765 75.119577,37.0307309 75.2551981,37.0057147 L75.2551981,37.0057147 Z" id="Path"></path>
                    <path d="M74.9061126,29.6975641 L76.2767384,28.4437466 C77.0267069,27.7576707 77.0958902,26.5739563 76.4312236,25.799644 C75.766557,25.0255187 74.6197808,24.95392 73.8696312,25.6401828 L72.4988242,26.8940004 C71.7488557,27.5800762 71.6796724,28.7637906 72.344339,29.5381029 C72.702933,29.9557305 73.2017046,30.168844 73.7030117,30.168844 C74.1311512,30.168844 74.5607395,30.0134955 74.9061126,29.6975641 L74.9061126,29.6975641 Z" id="Path"></path>
                    <path d="M78.6930988,41.811764 L76.7510202,41.1232512 C75.6883733,40.7466233 74.5394839,41.3561969 74.1847959,42.4854354 C73.8303104,43.6146739 74.404249,44.8353269 75.4668958,45.2119548 L77.4089745,45.9004676 C77.6221517,45.9759652 77.8383656,46.0118858 78.0513403,46.0118858 C78.9002026,46.0118858 79.6917722,45.4410289 79.9751987,44.5382834 C80.3296843,43.40926 79.7557456,42.188607 78.6930988,41.811764 Z" id="Path"></path>
                    <circle id="Oval" cx="50.7368689" cy="99.7461243" r="2"></circle>
                    <path d="M101.973302,44.1761188 C102.077693,43.5174923 101.852376,42.8215888 101.311695,42.3525366 L87.5689617,30.4294827 L87.5689617,15.2926343 C87.5689617,13.0901027 85.7779817,11.2980165 83.5768094,11.2980165 L65.5134114,11.2980165 C65.4974738,11.2832652 65.4833293,11.2675172 65.4667941,11.2531646 L53.615447,0.970298017 C52.124491,-0.323432672 49.8757055,-0.323432672 48.3847495,0.970298017 L36.4818047,11.2980165 L18.4233871,11.2980165 C16.2222148,11.2980165 14.4312348,13.0901027 14.4312348,15.2926343 L14.4312348,30.4294827 L0.688501326,42.3525366 C0.147820597,42.8215888 -0.077496243,43.5174923 0.0268945831,44.1761188 C0.0107578332,44.2783813 0,97.0051829 0,97.0051829 C0,99.2077145 1.79098001,101 3.99215222,101 L42.0523701,101 C43.1548488,101 44.0485458,100.105552 44.0485458,99.0023921 C44.0485458,97.8992325 43.1548488,97.0049836 42.0523701,97.0049836 L7.76476496,97.0049836 L39.3505602,69.8368384 L48.8503246,75.9109937 C49.5033649,76.3286156 50.251632,76.5373268 51.0000982,76.5373268 C51.7483653,76.5373268 52.4968316,76.3286156 53.1498719,75.9111931 L63.0827387,69.5601515 L95.023144,97.0051829 L59.9476272,97.0051829 C58.8451485,97.0051829 57.9514515,97.8994319 57.9514515,99.0025914 C57.9514515,100.105751 58.8451485,101 59.9476272,101 L98.0078451,101 C100.209017,101 102,99.2079139 102,97.0053822 C102,97.0051829 101.989439,44.2783813 101.973302,44.1761188 Z M96.4917874,43.457889 L87.5689617,49.1630619 L87.5689617,35.7166351 L96.4917874,43.457889 Z M51.0000982,3.98833848 L59.424677,11.2980165 L42.5753203,11.2980165 L51.0000982,3.98833848 Z M14.4312348,35.7166351 L14.4312348,49.1630619 L5.50840905,43.457889 L14.4312348,35.7166351 Z M3.99215222,94.9824579 L3.99215222,47.2290442 L35.8377292,67.5908502 L3.99215222,94.9824579 Z M51.0000982,72.5451012 L40.3309175,65.7232134 C40.2779252,65.6857371 40.2237376,65.6510515 40.1681555,65.6191568 L18.4233871,51.7156384 L18.4233871,15.2926343 L83.5768094,15.2926343 L83.5768094,51.7156384 L51.0000982,72.5451012 Z M98.0080443,94.3046945 L66.5959681,67.3135652 L98.0080443,47.2288448 L98.0080443,94.3046945 L98.0080443,94.3046945 Z" id="Shape"></path>
                </g>
            </g>
        </g>
    </g>
</svg>