<?xml version="1.0" encoding="UTF-8"?>
<svg width="707.943167px" height="691.903527px" viewBox="0 0 707.943167 691.903527" version="1.1" xmlns="http://www.w3.org/2000/svg" xmlns:xlink="http://www.w3.org/1999/xlink">
    <title>pattern-bg</title>
    <g id="Page-1" stroke="none" stroke-width="1" fill="none" fill-rule="evenodd" opacity="0.0978102911">
        <g id="Landing-Page" transform="translate(-1212.0568, -1739.4686)" stroke="#FFFFFF" stroke-width="5">
            <g id="Group-5" transform="translate(1095, 1741.9717)">
                <g id="pattern-bg" transform="translate(119.5575, 0)">
                    <path d="M252.306902,260.148958 C259.037012,246.965585 261.91735,233.584598 262.784248,219.723553 C263.007964,216.138511 263.063893,212.491015 262.67239,208.929277 C261.34874,196.71161 254.702523,190.284448 242.556632,189.201292 C239.405971,188.920715 236.162095,189.221799 233.123291,188.531077 C229.003196,187.5952 224.584814,186.69661 221.117222,184.48369 C211.637275,178.419133 212.839746,165.97309 223.000162,161.118462 C227.660903,158.890628 232.582646,158.588612 237.560317,159.319416 C241.344839,159.875909 245.110718,160.670099 248.820668,161.614365 C258.83194,164.16379 268.433066,163.262403 277.847763,158.942828 C281.921251,157.072939 286.19049,155.483626 290.524979,154.349202 C296.938159,152.671335 303.099659,153.979139 308.711191,157.430884 C318.302997,163.335111 318.601284,175.222797 309.186587,181.374043 C305.81221,183.573913 301.925152,184.963746 298.289774,186.759063 C289.527581,191.087028 286.7591,196.124357 287.924286,205.826155 C288.250538,208.507946 288.763219,211.175754 289.341151,213.815598 C291.59695,224.035671 290.823267,233.970507 286.833672,243.669509 C285.286306,247.421406 283.683011,251.183556 282.583076,255.076207 C281.622964,258.507445 280.821316,262.126976 280.811995,265.663547 C280.811995,275.937684 287.029423,282.592291 297.208482,283.66799 C305.215635,284.515312 312.999073,283.469442 320.307115,280.016765 C329.787063,275.543386 332.508936,267.328363 327.456692,258.172803 C325.732218,255.039853 323.42049,252.202394 321.183335,249.380781 C314.220187,240.591556 312.775358,230.926111 317.408134,220.834674 C320.008828,215.153231 323.112881,209.405605 327.214334,204.769099 C334.820663,196.180286 342.91171,187.92052 351.534081,180.360798 C366.942491,166.846513 385.249882,165.895722 401.310796,176.921171 C409.168806,182.317377 412.897399,189.837017 411.191567,196.840247 C409.504379,203.75399 402.736983,208.671072 393.03332,209.565934 C388.782724,209.957436 384.476199,209.715078 380.197639,209.631184 C373.831066,209.505344 367.557709,209.918286 361.647889,212.588891 C355.439782,215.399318 350.639219,219.604238 348.495278,226.312909 C345.074294,236.991599 351.925583,246.851863 363.10204,246.928299 C366.644204,246.952535 370.260939,246.155549 373.72853,245.26255 C382.891547,242.899555 391.970671,240.192596 401.124367,237.784857 C410.427206,235.337968 418.937719,231.358628 426.30169,225.140267 C434.588488,218.153816 443.947256,213.631033 454.657639,211.627846 C464.463839,209.79431 473.738713,206.260537 482.622086,201.700467 C488.895444,198.482692 495.467089,196.206386 502.607344,195.881998 C510.63314,195.517528 517.820003,197.687569 523.795073,203.126654 C527.281308,206.307144 530.348075,209.958369 533.83431,213.147248 C537.134114,216.170204 540.387312,219.534327 544.27437,221.577596 C555.208469,227.322426 566.291711,220.540115 566.608641,208.241351 C566.673892,205.5549 566.478141,202.808792 565.974781,200.168948 C564.539272,192.536518 565.452778,185.128736 569.227978,178.508619 C577.067345,164.769687 574.345472,152.905304 565.872244,140.151652 C551.19091,118.066264 532.305587,101.508515 508.405306,90.3367186 C503.940316,88.251503 499.512612,85.792496 495.672161,82.749032 C489.641162,77.9717724 486.667609,71.4280918 488.065832,63.6148254 C490.396202,50.5880539 505.310574,44.5561227 515.825206,52.6369157 C519.441941,55.4212425 522.033313,59.6541276 524.78315,63.4498351 C527.020306,66.5389744 528.4931,70.1929954 530.832792,73.1926484 C536.425682,80.390697 544.470121,81.1970052 551.601055,75.4903938 C553.353494,74.0912393 554.816966,72.335072 556.401618,70.7401664 C557.995592,69.1433965 559.440422,67.3611291 561.19286,65.9759568 C568.752582,60.0111403 577.384275,63.1357012 578.857069,72.6119201 C579.435001,76.3078878 579.285857,80.3683255 578.390995,83.9971785 C574.802224,98.5778411 578.008814,111.642831 586.099861,123.920155 C591.683429,132.388722 596.791601,141.181676 602.542956,149.529063 C612.50762,163.981089 626.974561,168.725724 643.827801,167.562403 C649.849478,167.146665 655.265259,165.038145 659.394676,160.359693 C666.031571,152.831664 663.607986,142.328218 654.156003,138.939859 C650.604518,137.665613 646.698817,137.068106 642.904974,136.846254 C626.993204,135.912242 616.599751,127.819331 612.405084,112.646754 C609.711175,102.914195 607.343519,92.8936012 606.579157,82.8692792 C605.283471,65.7923236 599.904976,50.8015158 588.560732,37.929481 C586.342219,35.4089522 584.412673,32.5565786 582.781413,29.6175152 C581.262012,26.8900495 579.938361,23.9342075 579.201964,20.9159115 C577.346989,13.2769568 580.115469,6.12085484 585.90411,2.46217304 C591.683429,-1.18998371 599.653296,-0.921525022 605.423294,4.22579749 C609.198494,7.59551333 612.768622,11.7967054 614.875277,16.3465209 C624.718762,37.6433115 634.32921,59.0650099 635.857933,83.0473195 C636.184185,88.1666775 637.21887,93.3773861 638.831486,98.2497249 C641.954183,107.725944 648.805472,113.442809 658.872673,113.687032 C666.702718,113.87719 674.570049,112.711073 682.428059,112.132208 C689.596279,111.602748 696.77382,110.760086 703.951361,110.651957 C706.971522,110.606282 710.252683,111.613934 713.011842,112.97487 C723.302758,118.065332 724.589123,131.004481 715.500678,138.019829 C712.694912,140.184277 709.357821,141.919005 706.002087,143.074869 C695.878958,146.5639 689.009025,153.161645 685.8304,163.350957 C680.060402,181.817746 666.078179,190.562228 648.553792,195.116704 C639.222988,197.544018 630.246401,196.568991 621.745209,191.722753 C618.426761,189.828628 615.02442,187.977381 611.454293,186.644409 C604.155572,183.914147 597.145817,185.801747 593.128258,191.168125 C589.353058,196.206386 589.61406,203.286984 593.846013,209.502548 C596.84753,213.911609 600.827803,217.360558 605.805474,219.094353 C613.234696,221.681997 620.766453,224.180154 628.447355,225.824464 C636.118935,227.466909 643.790515,225.872935 650.912127,222.69431 C661.408116,218.007468 671.829533,213.13979 682.092485,207.966368 C689.447135,204.261079 695.291704,198.579635 700.213447,191.994008 C702.776855,188.561838 705.209761,185.028064 707.801133,181.618266 C712.266123,175.753189 717.672583,170.842632 724.803517,168.751824 C740.491572,164.15074 746.690358,153.454339 746.224283,137.749506 C745.879389,126.209511 749.28173,115.482349 754.408545,105.269733 C757.167704,99.7737873 760.514116,94.7383225 766.032433,91.5233433 C771.047391,88.59733 776.230135,87.5626455 781.35695,90.8838896 C786.782053,94.395292 789.289532,99.7523479 788.068417,106.01918 C787.229484,110.348077 785.216044,114.511051 783.314461,118.557506 C780.648517,124.264118 777.320748,129.672442 774.775984,135.429389 C770.749103,144.521563 770.273708,154.119893 774.608197,163.024705 C781.524737,177.207341 782.382313,191.348961 777.740215,206.323923 C775.111557,214.805539 775.456452,223.669337 776.836031,232.490255 C777.563107,237.133286 778.131717,241.944103 777.730893,246.58993 C776.789424,257.635886 767.095082,263.36114 756.645701,259.506708 C744.788775,255.129339 738.692526,241.161098 743.595625,228.699209 C745.226885,224.556742 747.8369,220.771288 750.232521,216.967191 C752.786607,212.898364 754.977155,208.74844 755.07037,203.81924 C755.172906,198.29533 753.653505,193.34003 748.480082,190.663832 C743.176159,187.915859 738.347631,189.952603 734.208893,193.590778 C732.372561,195.203394 730.806552,197.200056 729.426972,199.226546 C727.767748,201.638946 726.350883,204.225657 724.989947,206.816097 C719.490272,217.2226 711.315332,224.78605 700.353269,228.913603 C685.802435,234.394634 672.81761,242.173411 661.417438,252.800833 C658.192205,255.808876 654.053467,258.009678 650.026586,259.949478 C643.389691,263.146746 636.519758,263.193354 629.780327,259.913124 C629.17443,259.616701 628.521927,259.396714 627.943995,259.053684 C607.968058,247.174387 585.792252,245.130185 563.308837,244.940959 C558.014235,244.896216 552.486596,245.944883 547.462317,247.671222 C540.154275,250.186157 536.407039,256.355114 536.658719,263.215725 C536.910399,270.03439 541.804177,276.654506 548.869861,278.676336 C552.477274,279.708224 556.494833,280.245141 560.195462,279.834996 C572.238817,278.501092 583.974563,279.581452 595.766238,282.248328 C602.75735,283.829251 610.074713,283.992377 617.22429,284.927322 C624.942477,285.936838 630.61926,289.942279 634.07753,296.971609 C637.582407,304.114661 636.799403,312.59721 631.980197,317.93003 C626.396629,324.107376 619.386874,325.757279 611.659365,323.183617 C607.641806,321.845985 603.810677,319.745855 600.165978,317.545053 C590.891103,311.951231 580.982367,310.05897 570.290627,311.37796 C565.145169,312.011821 559.962425,312.331548 554.789002,312.560856 C547.518246,312.883379 540.946601,310.564195 535.185925,306.272584 C522.713781,296.974406 513.783801,285.106294 509.458634,269.972868 C507.622302,263.544774 507.277407,257.12973 508.778165,250.592574 C509.62642,246.85932 510.558568,243.107424 510.950071,239.311716 C511.546646,233.575276 509.980637,228.493204 504.760607,225.283818 C499.363468,221.962573 493.854472,222.552623 488.839515,225.994114 C486.10832,227.869597 483.861843,230.50944 481.615366,233.002937 C480.273073,234.49251 479.24771,236.305538 478.268954,238.074756 C470.532124,251.982407 458.376911,258.62676 442.819357,259.167406 C428.445631,259.667037 414.677802,262.494243 401.404011,268.058235 C394.450185,270.971199 387.039607,271.73556 379.517171,271.613449 C375.014895,271.540741 370.447368,271.389733 366.038307,272.075794 C360.408132,272.949217 355.710105,275.762441 354.302561,281.827929 C352.969589,287.580216 355.821963,291.830812 360.025951,295.370178 C360.883528,296.094458 361.759747,296.838312 362.729181,297.405058 C373.514136,303.736209 379.405313,313.487411 382.59326,325.282815 C383.767767,329.619169 385.324454,333.888408 387.114179,338.009435 C390.805486,346.489187 397.442381,351.589902 406.456254,353.32463 C418.797897,355.700676 431.027682,355.599072 443.229502,351.841582 C452.690807,348.931416 462.329219,346.528338 472.004918,344.472019 C480.57136,342.652465 487.590436,338.901501 492.782502,331.729552 C494.749335,329.009544 497.005133,326.393936 499.531255,324.19593 C506.03765,318.538723 514.501555,318.600244 520.122409,325.096385 C529.201533,335.570935 532.631839,348.076636 529.565071,361.6599 C527.281308,371.762522 518.407257,375.902192 508.526485,372.373079 C506.196115,371.542535 503.996245,370.347521 501.740446,369.321226 C488.839515,363.454285 479.182459,366.113704 471.259199,377.701239 C469.599975,380.120163 468.015323,382.595949 466.188313,384.885305 C460.101385,392.543835 452.644199,394.869545 443.350681,391.816759 C440.153413,390.769025 436.984109,389.381988 434.150378,387.604381 C425.304292,382.065557 415.563343,379.663411 405.346998,378.647369 C399.51175,378.067573 393.676502,377.462609 387.859897,376.75604 C374.520856,375.136899 366.028986,367.872668 362.663931,354.793696 C361.424174,349.991268 360.33356,345.150622 359.056517,340.357516 C357.12697,333.094217 353.957666,326.403257 349.557927,320.297686 C342.492243,310.501741 333.077546,306.696712 321.211299,309.135211 C318.116567,309.770004 315.012513,310.378697 311.955067,311.168227 C303.584376,313.332675 295.418758,312.642885 287.392961,309.5901 C282.750863,307.827407 278.118086,306.065647 273.438702,304.403627 C265.068011,301.427278 257.340502,302.922443 250.591749,308.478979 C246.956371,311.469311 243.544709,314.84928 240.552513,318.478133 C229.926023,331.338982 216.437838,338.33289 199.8456,340.041518 C194.103567,340.631568 188.21239,342.08199 182.955074,344.409565 C175.591103,347.66649 170.576145,353.455131 170.203286,362.085891 C169.606711,375.966511 182.544929,384.251444 194.709463,377.588449 C198.410091,375.561026 201.458216,372.363758 204.907165,369.8395 C207.983254,367.588362 210.956807,364.961569 214.396434,363.490639 C223.829774,359.452573 232.480109,365.412728 232.498752,375.677545 C232.508074,381.262977 230.886136,386.604186 227.437187,390.839868 C221.051972,398.678302 214.219325,406.158792 207.321429,413.55632 C205.531704,415.467224 202.940332,416.740538 200.535389,417.920638 C190.738512,422.718405 182.768644,421.011642 175.842783,412.616715 C172.981088,409.141666 170.576145,405.286301 167.667843,401.848538 C160.807232,393.732324 152.203504,392.296815 144.326851,397.725647 C136.534092,403.097617 134.045256,413.132193 139.255965,421.684653 C141.893944,426.001431 145.706431,429.825103 149.640096,433.067115 C156.08124,438.357988 163.035066,443.01034 169.811784,447.883611 C171.265935,448.934142 172.831944,449.858833 174.416596,450.710816 C186.394701,457.142639 195.222145,456.189984 205.466454,447.332711 C207.51718,445.56629 209.306904,443.503446 211.404238,441.802276 C214.014253,439.679774 216.605625,437.36525 219.569856,435.877542 C228.555765,431.379926 237.168815,435.873813 238.706859,445.779752 C239.107683,448.388835 239.079719,451.269173 238.39925,453.795295 C237.289994,457.899543 235.751949,461.94227 233.915617,465.787382 C228.723552,476.706566 220.129145,482.074808 207.852753,481.191131 C203.80723,480.899369 199.72442,480.51812 195.69754,480.75675 C184.604976,481.414847 179.645948,489.292431 183.81265,499.560976 C185.248159,503.095682 187.214991,506.425316 189.042002,509.789439 C193.693421,518.326984 193.740029,526.906477 187.876817,534.636782 C177.958759,547.722279 167.686486,560.552367 157.190497,573.178315 C152.017074,579.400404 144.792925,582.795288 136.990845,584.859996 C131.975887,586.185511 126.849072,587.229517 122.029866,589.07051 C105.195269,595.503265 101.820892,612.633353 114.703181,625.247183 C121.228218,631.637991 128.90912,635.842912 138.100101,636.064763 C153.732227,636.442283 168.33899,640.377813 182.36782,647.11538 C190.869012,651.198189 199.9761,652.490147 209.400119,651.774257 C214.107468,651.41538 218.852102,651.25505 223.578094,651.303522 C226.029643,651.32869 228.555765,651.709007 230.895457,652.433286 C244.411607,656.627021 247.674125,671.683079 237.252708,681.333609 C233.039398,685.232785 227.912583,686.688801 222.366301,686.863113 C212.783817,687.162332 203.425049,685.665302 194.50439,682.252707 C184.81937,678.549283 175.236887,674.557824 165.747618,670.36875 C156.687137,666.364241 147.347012,664.193268 137.456919,665.315574 C124.630559,666.773454 114.041355,662.654291 105.074089,653.480088 C99.7235586,648.002785 93.7764529,643.108075 88.3793147,637.673651 C77.1376071,626.36576 74.0894824,612.926979 79.0764754,597.850414 C80.847557,592.522255 83.224535,587.370272 85.6760848,582.304046 C89.5724644,574.239099 95.8831079,568.58562 104.235156,565.409791 C109.706866,563.329237 115.299755,561.532987 120.901966,559.823427 C150.898496,550.668799 166.614515,520.543633 156.537993,490.768022 C154.906734,485.956273 151.923859,481.527637 149.127415,477.200605 C143.394703,468.307911 137.382347,459.592325 131.444563,450.831996 C129.925161,448.599501 128.461688,446.281248 126.616035,444.338651 C122.784906,440.297788 118.068236,438.229352 112.55924,440.327617 C107.096851,442.412833 104.896981,447.003663 104.626658,452.609602 C104.552086,454.173747 104.70123,455.763992 104.896981,457.321612 C105.102054,458.88296 105.502878,460.418208 105.801165,461.967438 C108.672182,476.840795 103.955512,485.292583 89.2368911,489.658766 C81.2949882,492.018033 72.9988689,493.539299 64.7493571,494.485429 C52.9856465,495.834248 41.669367,498.163686 30.9496624,503.422866 C26.5592442,505.574265 21.665466,507.005112 16.8369382,507.888789 C10.647474,509.022281 5.15712092,507.252131 1.77342285,501.364683 C-1.17216555,496.255579 -0.417125486,489.498436 3.80550599,484.277474 C8.82046345,478.091738 15.382787,473.86631 23.1102958,472.606978 C31.9563825,471.164945 40.9982203,470.930044 49.9561647,470.215086 C55.3439815,469.786298 60.7597627,469.68749 66.1102935,468.985582 C70.9015354,468.35545 75.086881,466.141598 78.4799005,462.55376 C82.4042445,458.407564 83.7558595,453.583697 81.8076697,448.225709 C79.7662651,442.630955 75.4597402,439.256579 69.540599,439.163364 C65.8399705,439.104639 62.0647702,440.342532 58.3921062,441.296119 C54.4864051,442.314025 50.7391692,444.2212 46.7868608,444.789811 C36.8035532,446.226251 30.1014075,438.625515 32.7673514,428.91253 C33.8206789,425.056233 36.0205487,421.515934 37.6518081,417.811577 C40.6346825,411.025538 44.2887035,404.43525 46.3953585,397.381684 C50.0400581,385.19105 56.1922364,374.679214 64.6654638,365.365189 C75.7393847,353.191333 86.6921264,340.913077 97.9431555,328.90794 C100.655707,326.011755 104.030083,323.335557 107.618854,321.727602 C117.919092,317.112536 127.697327,324.574382 126.52282,335.804904 C125.860995,342.156562 122.673048,347.384982 118.431774,351.84065 C114.097284,356.40538 109.259435,360.490054 104.626658,364.780732 C97.1974369,371.677697 89.525857,378.342557 82.4228875,385.564841 C79.011225,389.028704 76.0563151,393.256928 73.9962675,397.652939 C70.7803561,404.518211 72.7378674,411.852353 77.9112901,416.12066 C82.5440668,419.940603 89.4326422,420.289227 95.6687138,416.549448 C98.3253363,414.956407 100.711636,412.758401 102.827612,410.467181 C105.102054,407.994192 107.068887,405.189358 108.895897,402.356559 C114.945539,393.026688 122.337475,384.914202 130.111591,376.996534 C136.552735,370.447261 142.387983,363.193284 147.701228,355.691355 C153.508511,347.490314 154.310159,338.138071 151.243391,328.514573 C150.2926,325.507463 149.201987,322.510606 148.614733,319.425196 C148.046123,316.356564 147.561406,313.134127 147.869015,310.061767 C148.661341,302.114271 155.680417,297.236339 163.407926,299.274947 C166.3908,300.059816 169.177923,301.754462 171.881153,303.331656 C174.397953,304.803519 176.635109,306.762894 179.09598,308.347546 C188.510677,314.404645 198.363484,314.790555 207.880717,309.147329 C214.042217,305.495173 219.513927,300.675966 225.25596,296.333088 C237.989105,286.710521 247.618196,274.763178 252.306902,260.148958" id="Fill-16"></path>
                    <path d="M405.468177,644.656 C404.069955,647.841151 403.053913,650.871565 401.506547,653.595302 C396.49159,662.391052 387.05825,663.691399 380.14171,656.377764 C377.391873,653.46853 374.958966,650.054071 373.15992,646.480214 C366.56031,633.390989 354.992351,627.336686 341.588059,624.427451 C336.973926,623.426324 331.707288,624.2578 326.981297,625.309264 C322.656129,626.270309 318.70382,628.788041 314.49051,630.382014 C310.081449,632.05056 305.672388,634.005275 301.086219,634.820904 C292.60367,636.32912 286.581992,632.374947 283.73894,624.337033 C281.166211,617.021534 283.785548,610.242952 291.084268,605.997017 C293.395996,604.64913 295.987368,603.743082 298.51349,602.785766 C300.825217,601.90675 303.248803,601.305515 305.579173,600.453531 C317.939459,595.928884 321.84516,589.800382 320.670653,576.745646 C320.344401,573.154079 319.486825,569.57463 319.514789,565.995181 C319.552075,561.9944 319.775791,557.839816 320.894369,554.041312 C322.41377,548.887464 326.366079,545.755446 331.856432,545.370469 C337.178998,544.99761 341.075378,547.884473 343.275248,552.376495 C344.915828,555.739686 345.903906,559.570815 346.43523,563.299408 C347.059769,567.741094 346.93859,572.294638 347.041126,576.801575 C347.432629,595.292226 358.180298,606.496648 373.486172,614.514987 C373.691244,614.619388 373.905638,614.694892 374.120032,614.773192 C381.101823,617.386936 387.272644,616.228276 391.532561,611.506945 C395.540799,607.066191 396.062802,600.258712 392.213029,593.853922 C389.919945,590.02503 386.769284,586.703786 383.991482,583.165351 C380.654391,578.916619 377.019013,574.873892 374.026818,570.392124 C369.431327,563.47838 367.203493,555.739686 367.483137,547.34103 C367.697531,540.772182 369.832151,534.955577 374.194604,530.051545 C377.335944,526.514974 380.878107,523.313045 383.85166,519.645974 C386.088816,516.886815 388.344614,513.844284 389.463192,510.545411 C392.371495,502.01439 386.042208,494.461193 377.065621,495.246062 C372.358272,495.65714 368.489857,497.931581 365.115481,501.052414 C361.974141,503.958852 359.084481,507.150527 355.877892,509.975868 C347.721595,517.146885 340.404231,517.686599 331.185285,512.076931 C328.873557,510.673115 326.599116,509.148121 324.138244,508.083608 C316.177699,504.648641 308.990836,507.088073 305.728317,515.120395 C303.919949,519.582588 303.500483,524.701946 303.006444,529.581742 C302.47512,534.725336 302.801371,539.951891 302.391226,545.113196 C301.766687,553.080267 299.501567,560.626007 295.4374,567.546275 C286.609957,582.575301 270.353292,586.977837 255.261812,578.210051 C246.164045,572.92477 238.697538,565.626982 232.806361,557.001814 C228.891339,551.274696 225.544926,545.046081 222.748482,538.68883 C219.28089,530.814042 219.355462,522.409794 221.48076,514.121132 C223.149305,507.591433 226.393181,501.966851 232.340287,498.377148 C241.894806,492.607151 252.772976,497.298653 254.441521,508.330627 C255.159276,513.11814 254.199163,518.172248 253.882233,523.096787 C253.667838,526.462774 253.089907,529.810118 252.968727,533.177038 C252.894155,535.175564 253.192443,537.243068 253.667838,539.195919 C255.513492,546.763098 260.891987,551.225292 267.38906,550.767607 C273.541239,550.334158 278.118086,545.515884 279.031592,537.874133 C279.516309,533.869624 279.497666,529.763511 279.27395,525.728241 C278.779912,516.871901 279.348522,508.154451 281.716179,499.58428 C281.837358,499.149899 281.921251,498.704332 282.014466,498.264358 C285.491379,482.485885 284.018585,479.056512 270.166862,470.562777 C268.628817,469.620375 267.081451,468.679838 265.636622,467.610664 C256.995608,461.244091 255.94228,452.315976 263.185072,444.362887 C266.046767,441.219683 269.439786,438.505267 272.823484,435.89432 C290.897839,421.932604 301.188755,402.968981 307.816329,381.656343 C309.801805,375.259942 309.084051,368.72838 308.32901,362.195885 C307.890901,358.41416 307.406184,354.493544 307.928187,350.773341 C309.438267,339.950167 320.596081,335.177569 329.302346,341.8387 C332.72333,344.461765 335.622311,348.35628 337.533214,352.273167 C342.417671,362.331046 342.53885,372.948215 337.840823,383.052702 C334.438482,390.368201 329.982814,397.212965 325.750861,404.116455 C320.679975,412.375288 315.068442,420.309734 310.249236,428.704661 C307.471434,433.549967 305.327493,438.884652 303.705555,444.245436 C300.154071,455.998893 304.367381,466.98426 314.593047,473.672424 C326.505901,481.45959 339.080581,483.742421 352.484872,477.748708 C357.015112,475.724082 361.554674,473.700388 365.954414,471.420353 C377.904554,465.220636 389.6403,464.872012 401.282832,472.221069 C410.921244,478.307065 421.33334,482.22768 432.621655,484.285863 C446.725058,486.855796 454.881355,496.262104 458.982807,509.534962 C460.353065,513.952413 460.455601,518.403421 458.507411,522.761214 C454.872033,530.927764 446.221698,533.521933 438.87637,528.471554 C436.853608,527.079856 435.16642,525.208103 433.330088,523.544218 C431.661542,522.032274 430.132819,520.334832 428.324452,519.012113 C421.174875,513.769712 413.027899,514.936761 408.572231,522.602748 C405.915608,527.169343 403.892847,532.515213 403.231022,537.72126 C402.410731,544.106476 402.662411,550.808622 403.631845,557.195701 C404.73178,564.513065 406.987579,571.675692 409.019662,578.828065 C410.32467,583.436606 412.561825,587.617291 416.560741,590.585251 C420.093583,593.212977 423.989963,593.912647 428.044807,592.204392 C432.267439,590.423989 433.926663,586.769968 434.066485,582.430818 C434.141057,580.193662 433.777519,577.938796 433.572446,575.696979 C433.358052,573.453298 432.910621,571.218007 432.873335,568.974326 C432.78012,563.470923 434.196986,558.626549 439.668696,556.055684 C444.66501,553.70201 450.64008,555.010746 455.03982,559.721823 C457.006653,561.821021 458.637912,564.37231 459.859026,566.979529 C461.294535,570.019264 462.385148,573.279919 463.140188,576.55642 C465.973919,588.834676 472.312527,598.980737 481.335722,607.620819 C483.610163,609.799249 485.940534,612.023355 487.702294,614.601677 C489.706413,617.545401 491.533423,620.762245 492.64268,624.123571 C494.320546,629.162764 493.46297,634.02951 489.258981,637.716157 C485.027029,641.427971 479.862927,642.910087 474.829327,640.360661 C470.942269,638.393828 467.633143,635.127581 464.417231,632.066406 C461.825859,629.597146 459.886991,626.460467 457.454084,623.811301 C450.957011,616.753075 442.940536,615.050972 433.97327,617.849281 C420.056297,622.195889 409.485736,630.224481 405.468177,644.656" id="Fill-17"></path>
                    <path d="M408.087514,406.695709 C416.849707,411.51678 426.087296,416.707913 435.427421,421.707956 C444.357401,426.489877 453.417882,431.039692 462.385148,435.758227 C465.563774,437.431433 468.798328,439.080403 471.725273,441.136722 C475.407259,443.723433 477.336806,447.549902 477.765594,452.033535 C478.408776,458.727291 474.838648,463.776738 468.164467,464.364924 C464.258766,464.708886 459.998849,464.11604 456.270256,462.863233 C444.0964,458.785084 431.941187,454.564317 420.07494,449.66681 C414.556623,447.385844 409.653523,443.524886 404.601279,440.18127 C401.795513,438.321634 399.362606,435.89432 396.575483,434.000195 C388.186149,428.304769 379.498528,428.658054 371.640518,435.136484 C368.517822,437.706416 366.010343,441.031389 362.822396,443.503446 C359.131089,446.36887 355.309281,449.467331 351.021399,451.063168 C340.572018,454.952091 331.59543,446.925362 334.04698,436.00711 C334.960485,431.930826 336.666317,427.622437 339.248367,424.418643 C344.73872,417.612097 350.71379,411.115956 357.108327,405.15114 C362.225821,400.372016 368.937288,398.753806 375.984329,399.291656 C386.853177,400.1222 397.349166,402.600782 408.087514,406.695709" id="Fill-18"></path>
                    <path d="M588.16923,486.830628 C585.736323,492.407671 583.443238,498.051828 580.833223,503.546842 C575.352192,515.101752 566.142567,522.750028 554.64918,527.846082 C545.374305,531.95872 536.015537,531.820762 527.374523,526.58675 C516.132815,519.781136 504.602141,513.84708 492.008819,509.91155 C485.521067,507.883196 480.617967,503.55896 478.296918,496.867068 C474.801362,486.81851 481.093363,477.858701 491.729174,477.895987 C497.983889,477.918359 503.697958,480.097721 508.917988,483.370494 C513.690587,486.358029 518.211505,489.740795 522.918854,492.830866 C529.965895,497.452457 537.432402,499.99629 545.961558,497.349921 C553.549245,494.996246 559.067562,490.186362 562.143651,483.024667 C564.623166,477.252805 566.133246,471.073594 568.323794,465.167503 C569.880482,460.969108 571.726135,456.86113 573.702289,452.843571 C574.475972,451.278495 575.818266,449.89239 577.169881,448.734662 C581.336583,445.157077 586.006646,443.212616 591.487678,445.539258 C596.222991,447.551766 599.187222,452.875265 598.348289,459.049814 C597.742392,463.462604 596.381456,467.837176 594.843411,472.040232 C592.988436,477.112051 590.592815,481.984389 588.42091,486.943418 L588.16923,486.830628 Z" id="Fill-19"></path>
                    <path d="M277.307117,399.276741 C275.004711,404.632865 271.891336,408.954304 266.643342,411.329418 C257.349824,415.540864 248.783382,409.672058 249.687565,399.520964 C250.004496,395.975072 251.029859,392.420791 252.213687,389.038025 C255.401634,379.894583 256.203282,370.61598 254.916917,361.038157 C254.283056,356.365298 253.789018,351.595495 254.003412,346.904925 C254.385593,338.604145 259.549694,332.767033 266.7552,331.622355 C274.091206,330.45717 280.858602,334.199745 283.794869,341.958947 C285.276985,345.858123 286.479456,350.449885 285.882881,354.440412 C283.757583,368.689229 280.821316,382.815936 278.155372,396.983657 C277.996907,397.855215 277.540155,398.672709 277.307117,399.276741" id="Fill-20"></path>
                    <path d="M481.13997,409.384957 C486.695574,397.728443 506.177472,392.168179 516.962427,399.163951 C523.282392,403.261675 525.22126,410.577174 521.846884,417.546847 C517.344608,426.830111 501.470123,434.513809 491.393601,432.288771 C481.223864,430.043226 476.413979,419.303014 481.13997,409.384957" id="Fill-21"></path>
                    <path d="M554.639858,451.68025 C549.792687,459.365813 542.372787,466.104312 531.606475,467.560328 C520.31816,469.087186 512.991475,459.600714 516.999713,448.934142 C521.101165,438.012161 529.443892,431.886083 540.853386,430.588533 C552.123058,429.305897 559.561601,439.826121 554.639858,451.68025" id="Fill-22"></path>
                </g>
            </g>
        </g>
    </g>
</svg>