<?xml version="1.0" encoding="UTF-8"?>
<svg width="334.820007px" height="289.759531px" viewBox="0 0 334.820007 289.759531" version="1.1" xmlns="http://www.w3.org/2000/svg" xmlns:xlink="http://www.w3.org/1999/xlink">
    <title>shape-bottom-left</title>
    <g id="Page-1" stroke="none" stroke-width="1" fill="none" fill-rule="evenodd">
        <g id="Landing-Page" transform="translate(-0.4741, -647.2405)">
            <g id="Group" transform="translate(0.4741, 80)">
                <g id="Group-31" transform="translate(-332.4741, -188)">
                    <g id="shape-bottom-left" transform="translate(178.9755, 755.2405)">
                        <path d="M332.31033,376.678538 C314.376692,380.192958 298.236936,372.182186 291.221039,357.98386 C289.012985,353.515982 287.369241,348.723669 285.892891,343.948614 C281.756351,330.573454 273.775778,320.220885 261.310934,313.964303 C244.671583,305.611839 232.157555,292.922651 221.559072,278.053022 C219.253516,274.819031 217.060131,271.297708 215.800359,267.576202 C213.727774,261.4525 214.947855,255.606638 219.810059,251.01192 C224.850875,246.249807 230.67948,246.41375 236.607313,249.040289 C242.534284,251.665103 246.703613,256.394427 250.428571,261.478385 C254.870563,267.544276 258.941526,273.883693 263.456861,279.890909 C278.312685,299.656394 296.449094,300.753949 313.290354,282.529529 C318.33721,277.068501 322.545367,270.689393 326.357473,264.267142 C331.1843,256.137295 331.085935,247.560488 326.318645,239.212338 C325.32377,237.471091 324.371175,235.705684 323.422894,233.938551 C316.849643,221.686832 320.353709,213.426694 333.833274,209.368674 C336.232019,208.646462 338.710147,208.108038 341.009663,207.145952 C350.803962,203.043063 352.535718,193.136592 344.331666,186.30362 C340.950988,183.487252 336.722985,181.442279 332.570913,179.852895 C326.499845,177.529219 320.053434,176.196966 313.95044,173.944044 C308.812122,172.04662 303.580615,169.986978 299.017822,167.029964 C289.950049,161.153039 286.341577,150.704694 291.620542,141.403949 C300.000617,126.636136 309.405768,112.387765 319.247525,98.5388961 C324.448832,91.2192729 332.545027,88.9559967 341.446269,92.280588 C352.536581,96.4214429 357.12267,107.242543 352.110329,117.953198 C350.424305,121.557355 347.969474,124.804289 345.839941,128.197909 C338.181215,140.403034 339.384039,149.329298 350.294013,158.693032 C364.990208,171.306288 382.3,177.891619 401.47529,177.203921 C424.131349,176.391972 442.37993,185.047299 458.54816,199.78146 C464.289616,205.012967 470.258867,210.026171 475.668986,215.582113 C479.299892,219.310522 482.73838,223.490205 485.204428,228.041781 C492.022731,240.623974 487.206258,256.530758 475.033922,263.311095 C463.536341,269.715226 451.156057,264.556199 447.959169,251.761743 C446.936682,247.670071 446.607933,243.345428 446.445716,239.109658 C446.001344,227.560306 440.8311,219.051665 430.695971,213.55526 C422.261536,208.98125 413.393946,205.647168 403.862818,204.183761 C389.993241,202.054228 379.339535,207.312483 371.375357,218.458881 C365.076494,227.275563 362.085829,237.251062 361.6846,248.046277 C361.555171,251.551206 361.304942,255.05182 361.123742,258.555023 C360.243627,275.617174 352.130175,288.497916 338.200198,297.930678 C333.637405,301.020572 328.836464,303.756695 324.237432,306.794817 C321.736007,308.446327 319.269096,310.218637 317.070534,312.244627 C313.481046,315.553687 311.073672,319.665205 310.373032,324.564512 C309.523117,330.501837 311.324764,335.550418 316.255134,339.095038 C320.880915,342.421355 325.875136,341.67412 330.480208,339.135593 C333.515742,337.462511 336.032699,334.877389 338.93449,332.928193 C342.029561,330.847843 345.088392,328.400778 348.541549,327.225566 C358.485986,323.843163 367.671971,331.042849 366.845353,341.525709 C366.577867,344.920192 365.535535,348.544195 363.844333,351.48654 C356.098458,364.968694 344.454191,373.48165 332.31033,376.678538" id="Fill-1" fill="#05385E"></path>
                        <path d="M240.717968,60.6473561 C248.382735,58.4677771 253.893808,56.7662214 259.476498,55.3459574 C267.415653,53.3251443 274.943225,54.4382309 281.739094,59.1408063 C291.919954,66.1869035 293.098617,77.0882497 284.674536,86.1844973 C282.809037,88.1992704 280.739041,90.0673576 278.568954,91.7499304 C268.997272,99.170508 264.380119,108.936333 264.05137,120.982692 C263.915039,125.977776 263.536244,131.025494 262.625929,135.929116 C258.129577,160.160753 236.410582,172.42714 213.380043,163.880533 C209.622297,162.486155 205.922362,160.927833 202.225016,159.376415 C191.403916,154.835194 180.491353,154.080194 169.193092,157.759419 C164.473259,159.296169 159.465232,160.134867 154.52192,160.722473 C151.888477,161.035691 148.953035,160.58873 146.428313,159.702575 C138.281209,156.846516 135.317292,148.646778 140.148433,141.52216 C142.316795,138.322683 145.428261,135.199138 148.839138,133.514839 C157.572122,129.201413 166.612284,125.447118 175.722337,121.975841 C183.87807,118.866964 191.986345,119.960205 199.746026,123.893111 C203.767806,125.931182 207.716244,128.201361 211.920087,129.774351 C225.46523,134.844503 236.131879,127.273788 236.27425,112.713925 C236.463216,93.4195604 217.369897,77.8234046 197.127252,80.6708355 C187.738496,81.9910081 179.29198,85.888537 171.341608,90.6610038 C159.532535,97.7493811 148.088451,105.441759 136.451088,112.818331 C127.358291,118.583084 118.328484,124.462598 109.053625,129.921899 C95.7682024,137.742843 81.3463961,139.528096 66.2032407,137.443431 C54.0429849,135.769487 41.7878148,134.767709 29.6465419,132.985907 C23.5055825,132.085084 17.2773882,130.739026 11.5290291,128.475749 C4.26290311,125.61365 -0.260197778,119.96452 0.011602447,111.649158 C0.245436927,104.522815 5.87644731,98.2610558 14.0209626,95.7742995 C20.9453969,93.6602977 27.951889,94.0563495 34.811609,95.928751 C40.3623736,97.4439294 45.8311667,99.3197824 51.2231655,101.339733 C64.6768452,106.37796 77.9985077,106.628188 91.648919,101.760807 C99.6467484,98.9090621 108.099304,97.3567808 116.250722,94.8976359 C120.27768,93.682732 124.509998,92.3504795 127.90448,89.9974661 C135.227555,84.9229991 135.090361,76.4799349 128.027869,71.106919 C122.067247,66.572601 115.116064,65.5734116 108.009567,66.7072068 C103.107671,67.488956 98.3878388,69.3760262 93.5566977,70.6590958 C87.2888982,72.3235486 81.0711445,74.5764705 74.6868592,75.308174 C66.3343951,76.2650833 60.0191385,71.9973884 57.9508682,65.4759087 C55.8498093,58.8491603 58.8292575,50.7011936 65.8908862,46.8813218 C70.6305644,44.3177711 76.0760603,42.6783412 81.4033448,41.6929575 C86.2603716,40.7947225 91.3866102,41.1873228 96.38946,41.2736086 C104.152592,41.4090773 111.91141,41.9759749 119.671954,41.9785635 C129.900271,41.9820149 139.580673,43.9208565 148.621698,48.8158491 C151.262906,50.2464675 153.936039,51.6529258 156.69891,52.822961 C170.523619,58.6731373 181.145399,52.9472126 183.916035,38.0982917 C184.879848,32.9323617 185.146471,27.6214716 186.317369,22.5107645 C189.754995,7.50566633 202.157713,-1.52759258 217.367309,0.213654574 C221.428781,0.678734959 225.686984,2.34059919 229.141867,4.56073246 C236.142233,9.05881048 237.289834,16.6510968 232.464733,23.509091 C230.758,25.9345845 228.428284,27.9364147 226.301339,30.0495536 C224.170943,32.1661439 221.738547,34.0074826 219.785037,36.2698959 C210.955412,46.4964872 215.261936,58.6308573 228.682827,60.7215619 C233.279271,61.4377339 238.103509,60.690499 240.717968,60.6473561" id="Fill-2" fill="#05385E"></path>
                        <path d="M125.242564,264.298205 C138.676398,263.386164 152.879038,261.710494 167.089444,261.644642 C183.522572,261.568985 199.872866,277.211736 201.95753,293.511121 C203.380383,304.629907 195.657805,312.176462 184.67535,309.813957 C180.640627,308.946785 176.805224,306.74132 173.138941,304.683404 C169.227606,302.487431 165.769272,299.48296 161.856211,297.293026 C152.861781,292.259977 144.127071,292.7682 136.037779,299.417383 C133.9186,301.15863 131.998741,303.144928 130.002951,305.034587 C128.188361,306.751674 126.504925,308.629253 124.570398,310.196203 C117.33706,316.053282 109.684374,316.924768 103.085237,312.782188 C96.3057628,308.52571 92.9785829,299.570108 95.6836423,290.930313 C100.142892,276.684529 109.522157,267.491642 125.242564,264.298205" id="Fill-3" stroke="#FFFFFF" stroke-width="5"></path>
                        <path d="M215.117838,208.09337 C217.568355,220.073288 210.492057,229.236839 199.633854,229.413725 C195.680239,229.477576 191.648968,228.79937 187.760067,227.961535 C178.606871,225.990767 169.975704,226.989957 161.44808,230.943572 C157.426299,232.807344 152.97309,234.24314 148.588909,234.724615 C137.897237,235.901553 130.148774,227.336826 132.310233,216.818588 C133.041073,213.262751 134.569195,209.488611 136.823842,206.694677 C145.96841,195.362765 157.436653,187.402901 172.507329,187.383857 C180.644078,187.374427 189.0138,188.459902 196.861492,190.588572 C206.261465,193.137454 212.827814,199.637363 215.117838,208.09337" id="Fill-4" stroke="#FFFFFF" stroke-width="5"></path>
                        <path d="M260.785453,183.330212 C268.564117,181.922028 275.077831,182.556229 280.961659,186.818746 C288.279556,192.121008 290.791335,200.306078 287.546127,208.660267 C281.646768,223.848291 261.508528,230.141977 248.003077,221.019843 C240.133813,215.703776 237.452914,206.668791 241.31334,197.966007 C245.226401,189.146737 252.675452,185.070596 260.785453,183.330212" id="Fill-5" stroke="#FFFFFF" stroke-width="5"></path>
                        <path d="M392.895894,150.316408 C385.257877,146.391267 381.549314,140.207165 382.62012,133.710708 C383.808275,126.504982 389.851732,121.05776 398.482036,120.187137 C408.218524,119.205205 417.376035,121.576338 425.561104,126.880325 C430.89184,130.336071 434.193997,135.338058 433.034316,142.055406 C431.911738,148.556178 427.034865,151.470049 421.239912,153.219061 C420.047443,153.578873 418.82391,153.83169 418.095658,154.013753 C408.957131,155.522892 400.676284,154.314028 392.895894,150.316408 Z" id="Fill-6" stroke="#FFFFFF" stroke-width="5"></path>
                    </g>
                </g>
            </g>
        </g>
    </g>
</svg>