<?xml version="1.0" encoding="UTF-8"?>
<svg width="60px" height="57.2727273px" viewBox="0 0 60 57.2727273" version="1.1" xmlns="http://www.w3.org/2000/svg" xmlns:xlink="http://www.w3.org/1999/xlink">
    <g id="Page-1" stroke="none" stroke-width="1" fill="none" fill-rule="evenodd">
        <g id="Home-Concept-1b" transform="translate(-337, -4624)" fill-rule="nonzero">
            <g id="Footer" transform="translate(255, 4353)">
                <g id="Top" transform="translate(0, 270)">
                    <g id="social-fb" transform="translate(82, 1)">
                        <path d="M57.481606,19.0049708 C61.8060915,30.0213348 60.9225944,44.9721146 51.9946245,52.1929246 C43.1131545,59.4137346 26.1407117,58.9508622 14.6552505,50.7117328 C3.16978923,42.4726034 -2.82869054,26.4572171 1.3097955,15.6722892 C5.44828154,4.84107421 19.7702332,-0.713395048 31.7206929,0.0734880964 C43.6246528,0.814083997 53.1571206,7.94231954 57.481606,19.0049708 Z" id="Path" fill="#87E3C7"></path>
                        <path d="M28.5307143,27.8171429 L26,27.8171429 L26,24.3742857 L28.5307143,24.3742857 C28.5307143,24.3742857 28.5307143,22.9621429 28.5307143,21.4335714 C28.5307143,19.1235714 30.0221429,17 33.4642857,17 C34.8585714,17 35.89,17.1342857 35.89,17.1342857 L35.8092857,20.3485714 C35.8092857,20.3485714 34.7585714,20.3385714 33.6121429,20.3385714 C32.3735714,20.3385714 32.1728571,20.9121429 32.1728571,21.8607143 C32.1728571,22.6128571 32.1728571,20.2592857 32.1728571,24.375 L35.9078571,24.375 L35.7442857,27.8178571 L32.1714286,27.8178571 L32.1714286,37.3814286 L28.5307143,37.3807143 L28.5307143,27.8171429 Z" id="Path" fill="#05385E"></path>
                    </g>
                </g>
            </g>
        </g>
    </g>
</svg>